<svg width="16" height="16" viewBox="0 0 16 16" fill="none" xmlns="http://www.w3.org/2000/svg">
<path d="M9.38263 2.59028L9.01521 2.25116L9.01521 2.25116L9.38263 2.59028ZM10.3918 1.62593L10.1362 1.1962L10.1362 1.1962L10.3918 1.62593ZM12.4604 1.59486L12.7031 1.15772L12.7031 1.15771L12.4604 1.59486ZM14.4108 3.58727L13.9693 3.82205L13.9694 3.82212L14.4108 3.58727ZM14.3804 5.70045L13.946 5.45287L13.946 5.45288L14.3804 5.70045ZM13.4364 6.73131L13.7832 7.09144L13.7832 7.09143L13.4364 6.73131ZM7.16723 12.7695L6.82037 12.4094L6.82037 12.4094L7.16723 12.7695ZM5.04554 14.4558L4.86366 13.99L4.86361 13.9901L5.04554 14.4558ZM2.36374 14.6457L2.3768 14.1459L2.37677 14.1459L2.36374 14.6457ZM2.17708 14.6408L2.164 15.1407L2.16405 15.1407L2.17708 14.6408ZM1.42922 14.4866L1.80441 14.1561L1.80433 14.156L1.42922 14.4866ZM1.35755 13.7108L0.859061 13.6719L0.859061 13.6719L1.35755 13.7108ZM1.37555 13.4798L1.87404 13.5186L1.87404 13.5186L1.37555 13.4798ZM1.7493 11.1454L2.20789 11.3447L2.20789 11.3447L1.7493 11.1454ZM3.19312 9.29631L2.8257 8.95719L2.82569 8.9572L3.19312 9.29631ZM9.3335 14.1666C9.05735 14.1666 8.8335 14.3905 8.8335 14.6666C8.8335 14.9428 9.05735 15.1666 9.3335 15.1666V14.1666ZM14.6668 15.1666C14.943 15.1666 15.1668 14.9428 15.1668 14.6666C15.1668 14.3905 14.943 14.1666 14.6668 14.1666V15.1666ZM9.75005 2.9294C10.2715 2.3645 10.4618 2.16604 10.6474 2.05567L10.1362 1.1962C9.79387 1.39979 9.48741 1.73957 9.01521 2.25116L9.75005 2.9294ZM10.6474 2.05567C11.1314 1.7678 11.7259 1.75895 12.2177 2.03201L12.7031 1.15771C11.8999 0.711797 10.9259 0.726509 10.1362 1.1962L10.6474 2.05567ZM12.2177 2.032C12.4062 2.13667 12.602 2.32918 13.1395 2.87825L13.8541 2.17872C13.3675 1.6816 13.0513 1.35103 12.7031 1.15772L12.2177 2.032ZM13.1395 2.87825C13.6764 3.42664 13.8658 3.6275 13.9693 3.82205L14.8522 3.35248C14.6641 2.99875 14.3414 2.67652 13.8541 2.17872L13.1395 2.87825ZM13.9694 3.82212C14.2408 4.3323 14.2318 4.95132 13.946 5.45287L14.8148 5.94803C15.2705 5.14836 15.2846 4.16515 14.8522 3.35241L13.9694 3.82212ZM13.946 5.45288C13.837 5.64414 13.6419 5.83915 13.0895 6.3712L13.7832 7.09143C14.2846 6.60851 14.6164 6.29603 14.8148 5.94801L13.946 5.45288ZM13.0895 6.37119L6.82037 12.4094L7.51409 13.1296L13.7832 7.09144L13.0895 6.37119ZM6.82037 12.4094C5.79202 13.3999 5.37283 13.7912 4.86366 13.99L5.22742 14.9215C5.96616 14.633 6.54548 14.0626 7.51409 13.1296L6.82037 12.4094ZM4.86361 13.9901C4.35553 14.1885 3.78995 14.1828 2.3768 14.1459L2.35067 15.1455C3.68131 15.1803 4.48762 15.2105 5.22746 14.9215L4.86361 13.9901ZM2.37677 14.1459L2.19012 14.141L2.16405 15.1407L2.35071 15.1455L2.37677 14.1459ZM2.19017 14.141C2.08382 14.1382 1.99959 14.136 1.92727 14.1322C1.85465 14.1284 1.80706 14.1236 1.77436 14.1181C1.7129 14.1079 1.75885 14.1044 1.80441 14.1561L1.05403 14.8171C1.22098 15.0067 1.43204 15.0748 1.60975 15.1045C1.77192 15.1316 1.97 15.1356 2.164 15.1407L2.19017 14.141ZM1.80433 14.156C1.84845 14.2061 1.8385 14.2476 1.83466 14.1788C1.83008 14.0965 1.83836 13.9765 1.85604 13.7496L0.859061 13.6719C0.843592 13.8705 0.827018 14.0695 0.836209 14.2344C0.846145 14.4127 0.888608 14.6295 1.05412 14.8172L1.80433 14.156ZM1.85604 13.7496L1.87404 13.5186L0.877061 13.4409L0.859061 13.6719L1.85604 13.7496ZM1.87404 13.5186C1.96994 12.2875 2.01519 11.7882 2.20789 11.3447L1.29071 10.9462C1.01577 11.5791 0.96773 12.2771 0.877061 13.4409L1.87404 13.5186ZM2.20789 11.3447C2.40022 10.902 2.73112 10.5341 3.56054 9.63543L2.82569 8.9572C2.04179 9.80654 1.56603 10.3125 1.29071 10.9462L2.20789 11.3447ZM3.56054 9.63543L9.75005 2.9294L9.01521 2.25116L2.8257 8.95719L3.56054 9.63543ZM8.31328 3.0202L12.9799 7.68687L13.687 6.97976L9.02038 2.31309L8.31328 3.0202ZM9.3335 15.1666H14.6668V14.1666H9.3335V15.1666Z" fill="white"/>
</svg>
