<svg width="20" height="22" viewBox="0 0 20 22" fill="none" xmlns="http://www.w3.org/2000/svg">
<path d="M4.57757 14.4816L4.96128 15.126L4.96129 15.126L4.57757 14.4816ZM1.71266 19.1966L1.19532 19.7396L1.19534 19.7396L1.71266 19.1966ZM18.2873 19.1966L18.8046 19.7396L18.8046 19.7396L18.2873 19.1966ZM15.4224 14.4816L15.0387 15.126L15.0387 15.126L15.4224 14.4816ZM4.19387 13.8372C3.56786 14.2099 2.14934 14.9244 1.24272 15.8118C0.781049 16.2637 0.342396 16.8592 0.262652 17.5888C0.177847 18.3646 0.516306 19.0927 1.19532 19.7396L2.23 18.6536C1.77937 18.2243 1.73427 17.9301 1.75377 17.7518C1.77833 17.5271 1.93184 17.2363 2.29197 16.8838C3.02893 16.1624 4.17252 15.5957 4.96128 15.126L4.19387 13.8372ZM1.19534 19.7396C2.36678 20.8556 3.77256 21.75 5.59087 21.75V20.25C4.31842 20.25 3.26585 19.6404 2.22998 18.6536L1.19534 19.7396ZM5.59087 21.75H14.4091V20.25H5.59087V21.75ZM14.4091 21.75C16.2274 21.75 17.6332 20.8556 18.8046 19.7396L17.77 18.6536C16.7342 19.6404 15.6816 20.25 14.4091 20.25V21.75ZM18.8046 19.7396C19.4837 19.0927 19.8221 18.3646 19.7373 17.5888C19.6576 16.8592 19.2189 16.2637 18.7573 15.8118C17.8506 14.9244 16.4321 14.2099 15.8061 13.8372L15.0387 15.126C15.8275 15.5957 16.9711 16.1624 17.708 16.8838C18.0681 17.2363 18.2216 17.5271 18.2462 17.7517C18.2657 17.9301 18.2206 18.2243 17.77 18.6536L18.8046 19.7396ZM15.8061 13.8372C12.2521 11.7209 7.74792 11.7209 4.19386 13.8372L4.96129 15.126C8.04247 13.2913 11.9575 13.2913 15.0387 15.126L15.8061 13.8372ZM13.75 5.5C13.75 7.57107 12.0711 9.25 10 9.25V10.75C12.8995 10.75 15.25 8.39949 15.25 5.5H13.75ZM10 9.25C7.92894 9.25 6.25 7.57107 6.25 5.5H4.75C4.75 8.39949 7.10051 10.75 10 10.75V9.25ZM6.25 5.5C6.25 3.42893 7.92894 1.75 10 1.75V0.25C7.10051 0.25 4.75 2.60051 4.75 5.5H6.25ZM10 1.75C12.0711 1.75 13.75 3.42893 13.75 5.5H15.25C15.25 2.60051 12.8995 0.25 10 0.25V1.75Z" fill="white"/>
</svg>
