<svg width="21" height="21" viewBox="0 0 21 21" fill="none" xmlns="http://www.w3.org/2000/svg">
<path d="M2.39124 2.39124L1.86091 1.86091L1.86091 1.86091L2.39124 2.39124ZM18.6088 2.39124L19.1391 1.86092L19.1391 1.8609L18.6088 2.39124ZM18.6088 18.6088L19.1391 19.1392L19.1392 19.1391L18.6088 18.6088ZM2.39124 18.6088L1.8609 19.1391L1.86092 19.1391L2.39124 18.6088ZM6.75 6C6.75 6.41421 6.41421 6.75 6 6.75V8.25C7.24264 8.25 8.25 7.24264 8.25 6H6.75ZM6 6.75C5.58579 6.75 5.25 6.41421 5.25 6H3.75C3.75 7.24264 4.75736 8.25 6 8.25V6.75ZM5.25 6C5.25 5.58579 5.58579 5.25 6 5.25V3.75C4.75736 3.75 3.75 4.75736 3.75 6H5.25ZM6 5.25C6.41421 5.25 6.75 5.58579 6.75 6H8.25C8.25 4.75736 7.24264 3.75 6 3.75V5.25ZM1.75 10.5C1.75 8.23963 1.75159 6.6198 1.91722 5.3879C2.07994 4.17757 2.38853 3.45462 2.92157 2.92157L1.86091 1.86091C1.00271 2.71911 0.615679 3.81137 0.430593 5.18803C0.248407 6.54311 0.25 8.28203 0.25 10.5H1.75ZM2.92157 2.92157C3.45462 2.38853 4.17757 2.07994 5.3879 1.91722C6.6198 1.75159 8.23963 1.75 10.5 1.75V0.25C8.28203 0.25 6.54311 0.248407 5.18803 0.430593C3.81137 0.615679 2.71911 1.00271 1.86091 1.86091L2.92157 2.92157ZM10.5 1.75C12.7604 1.75 14.3802 1.75159 15.6121 1.91722C16.8224 2.07994 17.5454 2.38853 18.0785 2.92158L19.1391 1.8609C18.2809 1.00271 17.1886 0.615679 15.812 0.430593C14.4569 0.248407 12.7179 0.25 10.5 0.25V1.75ZM18.0785 2.92156C18.6115 3.45461 18.9201 4.17756 19.0828 5.38789C19.2484 6.6198 19.25 8.23963 19.25 10.5H20.75C20.75 8.28203 20.7516 6.54311 20.5694 5.18803C20.3843 3.81137 19.9973 2.71912 19.1391 1.86092L18.0785 2.92156ZM19.25 10.5C19.25 12.7604 19.2484 14.3802 19.0828 15.6121C18.9201 16.8224 18.6115 17.5454 18.0785 18.0785L19.1392 19.1391C19.9973 18.2809 20.3843 17.1886 20.5694 15.812C20.7516 14.4569 20.75 12.7179 20.75 10.5H19.25ZM18.0785 18.0785C17.5454 18.6115 16.8224 18.9201 15.6121 19.0828C14.3802 19.2484 12.7604 19.25 10.5 19.25V20.75C12.7179 20.75 14.4569 20.7516 15.812 20.5694C17.1886 20.3843 18.2809 19.9973 19.1391 19.1392L18.0785 18.0785ZM10.5 19.25C8.23963 19.25 6.6198 19.2484 5.38789 19.0828C4.17756 18.9201 3.45461 18.6115 2.92156 18.0785L1.86092 19.1391C2.71912 19.9973 3.81137 20.3843 5.18803 20.5694C6.54311 20.7516 8.28203 20.75 10.5 20.75V19.25ZM2.92158 18.0785C2.38853 17.5454 2.07994 16.8224 1.91722 15.6121C1.75159 14.3802 1.75 12.7604 1.75 10.5H0.25C0.25 12.7179 0.248407 14.4569 0.430593 15.812C0.615679 17.1886 1.00271 18.2809 1.8609 19.1391L2.92158 18.0785ZM4.07517 19.9812C6.30486 17.3169 8.53608 14.4052 11.0973 12.6878C12.3573 11.843 13.6532 11.3212 15.0225 11.2568C16.3846 11.1927 17.8932 11.5778 19.591 12.6727L20.404 11.4121C18.4901 10.1778 16.6772 9.67733 14.952 9.75845C13.234 9.83923 11.6769 10.4933 10.262 11.442C7.47343 13.3117 5.0676 16.458 2.92483 19.0186L4.07517 19.9812Z" fill="white"/>
</svg>
