<svg width="22" height="16" viewBox="0 0 22 16" fill="none" xmlns="http://www.w3.org/2000/svg">
<path d="M20.544 7.045C20.848 7.4713 21 7.6845 21 8C21 8.3155 20.848 8.5287 20.544 8.955C19.1779 10.8706 15.6892 15 11 15C6.31078 15 2.8221 10.8706 1.45604 8.955C1.15201 8.5287 1 8.3155 1 8C1 7.6845 1.15201 7.4713 1.45604 7.045C2.8221 5.12944 6.31078 1 11 1C15.6892 1 19.1779 5.12944 20.544 7.045Z" stroke="white" stroke-width="1.5"/>
<path d="M14 8C14 6.3431 12.6569 5 11 5C9.3431 5 8 6.3431 8 8C8 9.6569 9.3431 11 11 11C12.6569 11 14 9.6569 14 8Z" stroke="white" stroke-width="1.5"/>
</svg>
