<svg width="22" height="22" viewBox="0 0 22 22" fill="none" xmlns="http://www.w3.org/2000/svg">
<path d="M13 18.25C12.5858 18.25 12.25 18.5858 12.25 19C12.25 19.4142 12.5858 19.75 13 19.75V18.25ZM15 21L14.3292 21.3354C14.4501 21.5772 14.6917 21.7352 14.9616 21.749C15.2316 21.7628 15.4881 21.6303 15.6331 21.4022L15 21ZM21.2504 15.707C21.6408 15.5687 21.8453 15.1401 21.707 14.7496C21.5687 14.3592 21.1401 14.1547 20.7496 14.293L21.2504 15.707ZM16.2524 13.0595C16.2852 13.4724 16.6465 13.7805 17.0595 13.7476C17.4724 13.7148 17.7805 13.3535 17.7476 12.9405L16.2524 13.0595ZM16.7944 11.1553L16.0512 11.2558L16.0512 11.2558L16.7944 11.1553ZM13.4896 8.09909L13.5239 7.34987L13.5239 7.34987L13.4896 8.09909ZM4.57374 8.09909L4.53944 7.34987L4.53943 7.34987L4.57374 8.09909ZM1.26887 11.1553L2.01211 11.2558L2.01211 11.2558L1.26887 11.1553ZM1.26887 17.8447L2.01211 17.7442L2.01211 17.7442L1.26887 17.8447ZM4.57374 20.9009L4.53943 21.6501L4.53945 21.6501L4.57374 20.9009ZM10.5105 21.7398C10.9247 21.734 11.2557 21.3936 11.2499 20.9794C11.2441 20.5652 10.9037 20.2342 10.4895 20.24L10.5105 21.7398ZM3.75 8C3.75 8.41421 4.08579 8.75 4.5 8.75C4.91421 8.75 5.25 8.41421 5.25 8H3.75ZM12.75 8C12.75 8.41421 13.0858 8.75 13.5 8.75C13.9142 8.75 14.25 8.41421 14.25 8H12.75ZM13 19C13 19.75 12.9993 19.75 12.9985 19.75C12.9983 19.75 12.9976 19.75 12.9971 19.75C12.9962 19.75 12.9952 19.75 12.9943 19.75C12.9925 19.75 12.9907 19.7499 12.9889 19.7499C12.9854 19.7499 12.9822 19.7498 12.9791 19.7497C12.973 19.7495 12.9677 19.7492 12.9632 19.7489C12.9542 19.7484 12.9485 19.7477 12.9458 19.7473C12.9404 19.7466 12.9475 19.7472 12.9658 19.7524C13.0013 19.7625 13.0867 19.7925 13.209 19.874C13.4522 20.0362 13.8737 20.4244 14.3292 21.3354L15.6708 20.6646C15.1263 19.5756 14.5478 18.9638 14.041 18.626C13.7883 18.4575 13.5612 18.3625 13.3779 18.3101C13.2868 18.2841 13.2081 18.269 13.144 18.2605C13.1121 18.2562 13.0839 18.2536 13.0598 18.252C13.0477 18.2513 13.0367 18.2508 13.0267 18.2504C13.0217 18.2503 13.017 18.2502 13.0125 18.2501C13.0103 18.2501 13.0082 18.25 13.0061 18.25C13.005 18.25 13.004 18.25 13.003 18.25C13.0025 18.25 13.0017 18.25 13.0015 18.25C13.0007 18.25 13 18.25 13 19ZM15 21C15.6331 21.4022 15.633 21.4023 15.633 21.4023C15.633 21.4023 15.6329 21.4023 15.633 21.4023C15.633 21.4023 15.633 21.4022 15.6331 21.402C15.6334 21.4017 15.6338 21.4011 15.6344 21.4001C15.6356 21.3982 15.6375 21.3952 15.6402 21.391C15.6456 21.3825 15.654 21.3696 15.6653 21.3523C15.6877 21.3176 15.7217 21.2658 15.7662 21.199C15.8553 21.0653 15.9866 20.8717 16.1532 20.6356C16.4869 20.1628 16.9598 19.5234 17.5171 18.8554C18.0758 18.1857 18.7101 17.4983 19.3658 16.9233C20.0294 16.3414 20.6737 15.9112 21.2504 15.707L20.7496 14.293C19.9146 14.5888 19.103 15.1586 18.3768 15.7955C17.6429 16.4392 16.9536 17.1893 16.3653 17.8946C15.7755 18.6016 15.2778 19.2747 14.9277 19.7706C14.7524 20.0189 14.6135 20.2238 14.5178 20.3674C14.47 20.4392 14.4329 20.4958 14.4075 20.535C14.3948 20.5545 14.385 20.5697 14.3782 20.5803C14.3748 20.5856 14.3721 20.5897 14.3703 20.5926C14.3693 20.5941 14.3686 20.5953 14.368 20.5961C14.3677 20.5966 14.3675 20.5969 14.3673 20.5972C14.3673 20.5973 14.3672 20.5975 14.3671 20.5976C14.367 20.5977 14.3669 20.5978 15 21ZM17.7476 12.9405C17.6966 12.2988 17.6206 11.6684 17.5376 11.0548L16.0512 11.2558C16.1324 11.856 16.2044 12.4562 16.2524 13.0595L17.7476 12.9405ZM17.5376 11.0548C17.2647 9.03578 15.5864 7.44433 13.5239 7.34987L13.4553 8.8483C14.773 8.90865 15.8725 9.93422 16.0512 11.2558L17.5376 11.0548ZM13.5239 7.34987C12.0898 7.28422 10.6337 7.25 9.0316 7.25V8.75C10.6115 8.75 12.0448 8.78372 13.4553 8.8483L13.5239 7.34987ZM9.0316 7.25C7.42958 7.25 5.97342 7.28422 4.53944 7.34987L4.60804 8.8483C6.0185 8.78372 7.45178 8.75 9.0316 8.75V7.25ZM4.53943 7.34987C2.47689 7.44433 0.798541 9.03577 0.525629 11.0548L2.01211 11.2558C2.19074 9.93423 3.29021 8.90865 4.60805 8.8483L4.53943 7.34987ZM0.525631 11.0548C0.376879 12.1552 0.25 13.3117 0.25 14.5H1.75C1.75 13.4131 1.86616 12.3354 2.01211 11.2558L0.525631 11.0548ZM0.25 14.5C0.25 15.6883 0.376879 16.8448 0.525631 17.9452L2.01211 17.7442C1.86616 16.6646 1.75 15.5869 1.75 14.5H0.25ZM0.525629 17.9452C0.798542 19.9642 2.47689 21.5557 4.53943 21.6501L4.60805 20.1517C3.29021 20.0913 2.19074 19.0658 2.01211 17.7442L0.525629 17.9452ZM4.53945 21.6501C5.97341 21.7158 7.42957 21.75 9.0316 21.75V20.25C7.45179 20.25 6.01851 20.2162 4.60803 20.1517L4.53945 21.6501ZM9.0316 21.75C9.53779 21.75 10.0294 21.7466 10.5105 21.7398L10.4895 20.24C10.0156 20.2466 9.53101 20.25 9.0316 20.25V21.75ZM5.25 8V5.5H3.75V8H5.25ZM5.25 5.5C5.25 3.42893 6.92893 1.75 9 1.75V0.25C6.10051 0.25 3.75 2.60051 3.75 5.5H5.25ZM9 1.75C11.0711 1.75 12.75 3.42893 12.75 5.5H14.25C14.25 2.60051 11.8995 0.25 9 0.25V1.75ZM12.75 5.5V8H14.25V5.5H12.75Z" fill="white"/>
</svg>
