<svg width="22" height="22" viewBox="0 0 22 22" fill="none" xmlns="http://www.w3.org/2000/svg">
<path d="M3.41905 20.5838L3.79813 19.8398L3.41905 20.5838ZM1.41606 18.5808L2.16005 18.2017L1.41606 18.5808ZM16.917 18.5808L16.173 18.2017L16.917 18.5808ZM14.914 20.5838L14.5349 19.8398L14.914 20.5838ZM14.914 5.08291L14.5349 5.8269L14.914 5.08291ZM16.917 7.0859L16.173 7.46498L16.917 7.0859ZM3.41905 5.08291L3.79813 5.8269L3.41905 5.08291ZM1.41606 7.0859L2.16005 7.46498L1.41606 7.0859ZM17.4165 16.5817C16.9553 16.5817 16.5815 16.9555 16.5815 17.4167C16.5815 17.8778 16.9553 18.2517 17.4165 18.2517V16.5817ZM3.74817 4.58335C3.74817 5.04451 4.12201 5.41835 4.58317 5.41835C5.04433 5.41835 5.41817 5.04451 5.41817 4.58335H3.74817ZM4.92244 14.9802C4.58931 15.2991 4.57776 15.8276 4.89665 16.1608C5.21554 16.4939 5.74411 16.5054 6.07724 16.1865L4.92244 14.9802ZM12.2558 16.1865C12.5889 16.5054 13.1175 16.4939 13.4364 16.1608C13.7552 15.8276 13.7437 15.2991 13.4106 14.9802L12.2558 16.1865ZM8.24984 5.41835H10.0832V3.74835H8.24984V5.41835ZM16.5815 11.9167V13.75H18.2515V11.9167H16.5815ZM10.0832 20.2484H8.24984V21.9184H10.0832V20.2484ZM1.7515 13.75V11.9167H0.0815039V13.75H1.7515ZM8.24984 20.2484C6.95261 20.2484 6.0299 20.2477 5.30751 20.1887C4.59487 20.1305 4.15101 20.0196 3.79813 19.8398L3.03997 21.3278C3.66751 21.6475 4.3556 21.7865 5.17152 21.8531C5.97769 21.919 6.98016 21.9184 8.24984 21.9184V20.2484ZM0.0815039 13.75C0.0815039 15.0197 0.0808545 16.0222 0.146721 16.8283C0.213384 17.6443 0.352317 18.3323 0.672067 18.9599L2.16005 18.2017C1.98024 17.8488 1.8694 17.405 1.81117 16.6924C1.75215 15.97 1.7515 15.0473 1.7515 13.75H0.0815039ZM3.79813 19.8398C3.09284 19.4804 2.51941 18.907 2.16005 18.2017L0.672067 18.9599C1.19154 19.9794 2.02044 20.8083 3.03997 21.3278L3.79813 19.8398ZM16.5815 13.75C16.5815 15.0473 16.5809 15.97 16.5218 16.6924C16.4636 17.405 16.3528 17.8488 16.173 18.2017L17.6609 18.9599C17.9807 18.3323 18.1196 17.6443 18.1863 16.8283C18.2522 16.0222 18.2515 15.0197 18.2515 13.75H16.5815ZM10.0832 21.9184C11.3528 21.9184 12.3553 21.919 13.1615 21.8531C13.9774 21.7865 14.6655 21.6475 15.293 21.3278L14.5349 19.8398C14.182 20.0196 13.7381 20.1305 13.0255 20.1887C12.3031 20.2477 11.3804 20.2484 10.0832 20.2484V21.9184ZM16.173 18.2017C15.8136 18.907 15.2402 19.4804 14.5349 19.8398L15.293 21.3278C16.3126 20.8083 17.1415 19.9794 17.6609 18.9599L16.173 18.2017ZM10.0832 5.41835C11.3804 5.41835 12.3031 5.419 13.0255 5.47803C13.7381 5.53625 14.182 5.64709 14.5349 5.8269L15.293 4.33892C14.6655 4.01917 13.9774 3.88023 13.1615 3.81357C12.3553 3.7477 11.3528 3.74835 10.0832 3.74835V5.41835ZM18.2515 11.9167C18.2515 10.647 18.2522 9.64454 18.1863 8.83837C18.1196 8.02245 17.9807 7.33436 17.6609 6.70682L16.173 7.46498C16.3528 7.81786 16.4636 8.26172 16.5218 8.97436C16.5809 9.69675 16.5815 10.6195 16.5815 11.9167H18.2515ZM14.5349 5.8269C15.2402 6.18626 15.8136 6.75969 16.173 7.46498L17.6609 6.70682C17.1415 5.68729 16.3126 4.85839 15.293 4.33892L14.5349 5.8269ZM8.24984 3.74835C6.98016 3.74835 5.97769 3.7477 5.17152 3.81357C4.3556 3.88023 3.66751 4.01917 3.03997 4.33892L3.79813 5.8269C4.15101 5.64709 4.59487 5.53625 5.30751 5.47803C6.0299 5.419 6.95261 5.41835 8.24984 5.41835V3.74835ZM1.7515 11.9167C1.7515 10.6195 1.75215 9.69675 1.81117 8.97436C1.8694 8.26172 1.98024 7.81786 2.16005 7.46498L0.672067 6.70682C0.352317 7.33436 0.213384 8.02245 0.146721 8.83837C0.0808545 9.64454 0.0815039 10.647 0.0815039 11.9167H1.7515ZM3.03997 4.33892C2.02044 4.85839 1.19154 5.68729 0.672067 6.70682L2.16005 7.46498C2.51941 6.75969 3.09284 6.18626 3.79813 5.8269L3.03997 4.33892ZM8.24984 1.75169H16.4998V0.081687H8.24984V1.75169ZM20.2482 5.50002V13.75H21.9182V5.50002H20.2482ZM20.2482 13.75C20.2482 15.3139 18.9804 16.5817 17.4165 16.5817V18.2517C19.9027 18.2517 21.9182 16.2362 21.9182 13.75H20.2482ZM16.4998 1.75169C18.57 1.75169 20.2482 3.42987 20.2482 5.50002H21.9182C21.9182 2.50756 19.4923 0.081687 16.4998 0.081687V1.75169ZM8.24984 0.081687C5.76364 0.081687 3.74817 2.09715 3.74817 4.58335H5.41817C5.41817 3.01947 6.68595 1.75169 8.24984 1.75169V0.081687ZM6.07724 16.1865C7.7794 14.5571 10.5536 14.5571 12.2558 16.1865L13.4106 14.9802C11.0626 12.7326 7.27037 12.7326 4.92244 14.9802L6.07724 16.1865ZM10.7909 11.4922C10.7909 12.2813 10.1119 12.9827 9.19659 12.9827V14.6527C10.9647 14.6527 12.4609 13.2717 12.4609 11.4922H10.7909ZM9.19659 12.9827C8.28131 12.9827 7.60226 12.2813 7.60226 11.4922H5.93226C5.93226 13.2717 7.4285 14.6527 9.19659 14.6527V12.9827ZM7.60226 11.4922C7.60226 10.703 8.28131 10.0017 9.19659 10.0017V8.33169C7.4285 8.33169 5.93226 9.71268 5.93226 11.4922H7.60226ZM9.19659 10.0017C10.1119 10.0017 10.7909 10.703 10.7909 11.4922H12.4609C12.4609 9.71268 10.9647 8.33169 9.19659 8.33169V10.0017Z" fill="white"/>
</svg>
