<svg width="52" height="57" viewBox="0 0 52 57" fill="none" xmlns="http://www.w3.org/2000/svg">
<path d="M11.3333 18.7C15.3834 18.7 18.6667 15.4093 18.6667 11.35C18.6667 7.29072 15.3834 4 11.3333 4C7.28326 4 4 7.29072 4 11.35C4 15.4093 7.28326 18.7 11.3333 18.7ZM11.3333 18.7V38.3M40.6667 18.7C44.7169 18.7 48 15.4093 48 11.35C48 7.29072 44.7169 4 40.6667 4C36.6165 4 33.3333 7.29072 33.3333 11.35C33.3333 15.4093 36.6165 18.7 40.6667 18.7ZM40.6667 18.7C40.6667 22.1303 40.6667 23.8455 40.0006 25.1558C39.4146 26.3082 38.4799 27.2451 37.33 27.8324C36.0227 28.5 34.3114 28.5 30.8889 28.5H11.3333M11.3333 38.3C7.28326 38.3 4 41.5906 4 45.65C4 49.7094 7.28326 53 11.3333 53C15.3834 53 18.6667 49.7094 18.6667 45.65C18.6667 41.5906 15.3834 38.3 11.3333 38.3Z" stroke="url(#paint0_linear_731_436)" stroke-width="7" stroke-linecap="round" stroke-linejoin="round"/>
<defs>
<linearGradient id="paint0_linear_731_436" x1="26" y1="4" x2="26" y2="49.3444" gradientUnits="userSpaceOnUse">
<stop stop-color="#73C64A"/>
<stop offset="1" stop-color="#138950"/>
</linearGradient>
</defs>
</svg>
