<svg width="21" height="21" viewBox="0 0 21 21" fill="none" xmlns="http://www.w3.org/2000/svg">
<path d="M10.5 6.5V14.5M7.5 8.5V12.5M4.5 9.5V11.5M13.5 8.5V12.5M16.5 9.5V11.5M1 10.5C1 6.02166 1 3.78249 2.39124 2.39124C3.78249 1 6.02166 1 10.5 1C14.9783 1 17.2175 1 18.6088 2.39124C20 3.78249 20 6.02166 20 10.5C20 14.9783 20 17.2175 18.6088 18.6088C17.2175 20 14.9783 20 10.5 20C6.02166 20 3.78249 20 2.39124 18.6088C1 17.2175 1 14.9783 1 10.5Z" stroke="white" stroke-width="1.5" stroke-linecap="round"/>
</svg>
