<svg width="24" height="18" viewBox="0 0 24 18" fill="none" xmlns="http://www.w3.org/2000/svg">
<path d="M20.774 14.25C20.3598 14.25 20.024 14.5858 20.024 15C20.024 15.4142 20.3598 15.75 20.774 15.75V14.25ZM22.6545 13.8691L23.2368 14.3417L23.2368 14.3417L22.6545 13.8691ZM21.2654 10.9126L21.723 10.3184L21.723 10.3184L21.2654 10.9126ZM19.0676 9.25305C18.655 9.21574 18.2904 9.51991 18.253 9.93244C18.2157 10.345 18.5199 10.7096 18.9324 10.747L19.0676 9.25305ZM18 7.25C17.5858 7.25 17.25 7.58579 17.25 8C17.25 8.41421 17.5858 8.75 18 8.75V7.25ZM18 2.25C17.5858 2.25 17.25 2.58579 17.25 3C17.25 3.41421 17.5858 3.75 18 3.75V2.25ZM3.22596 15.75C3.64017 15.75 3.97596 15.4142 3.97596 15C3.97596 14.5858 3.64017 14.25 3.22596 14.25V15.75ZM1.34555 13.8691L1.92791 13.3965L1.92788 13.3965L1.34555 13.8691ZM2.73465 10.9126L3.19222 11.5068L3.19225 11.5068L2.73465 10.9126ZM5.06756 10.747C5.48009 10.7096 5.78426 10.345 5.74695 9.93244C5.70964 9.51991 5.34497 9.21574 4.93244 9.25305L5.06756 10.747ZM5.5 8.75C5.91421 8.75 6.25 8.41421 6.25 8C6.25 7.58579 5.91421 7.25 5.5 7.25V8.75ZM5.5 3.75C5.91421 3.75 6.25 3.41421 6.25 3C6.25 2.58579 5.91421 2.25 5.5 2.25V3.75ZM8.0838 12.1112L7.68936 11.4733L7.68936 11.4733L8.0838 12.1112ZM6.0147 15.6474L6.54218 15.1142L6.54218 15.1142L6.0147 15.6474ZM17.9853 15.6474L17.4578 15.1142L17.4578 15.1142L17.9853 15.6474ZM15.9162 12.1112L15.5218 12.7491L15.5218 12.7491L15.9162 12.1112ZM20.774 15.75C21.8731 15.75 22.6619 15.0501 23.2368 14.3417L22.0722 13.3965C21.5767 14.0069 21.1735 14.25 20.774 14.25V15.75ZM23.2368 14.3417C23.6124 13.879 23.7875 13.3714 23.7434 12.8488C23.7012 12.3499 23.4669 11.9349 23.2164 11.6179C22.7419 11.0171 21.9894 10.5235 21.723 10.3184L20.8078 11.5068C21.2273 11.8299 21.7171 12.1397 22.0394 12.5477C22.1874 12.735 22.2403 12.8758 22.2487 12.9752C22.2551 13.051 22.2443 13.1844 22.0722 13.3965L23.2368 14.3417ZM21.723 10.3184C20.9186 9.69901 20.0061 9.33794 19.0676 9.25305L18.9324 10.747C19.5727 10.8049 20.2174 11.0522 20.8078 11.5068L21.723 10.3184ZM18 8.75C19.7949 8.75 21.25 7.29493 21.25 5.5H19.75C19.75 6.46649 18.9665 7.25 18 7.25V8.75ZM21.25 5.5C21.25 3.70507 19.7949 2.25 18 2.25V3.75C18.9665 3.75 19.75 4.53351 19.75 5.5H21.25ZM3.22596 14.25C2.82645 14.25 2.42327 14.0069 1.92791 13.3965L0.763185 14.3417C1.33807 15.0501 2.12687 15.75 3.22596 15.75V14.25ZM1.92788 13.3965C1.75571 13.1843 1.74491 13.051 1.75132 12.9752C1.75972 12.8758 1.8126 12.735 1.96057 12.5477C2.28289 12.1397 2.7727 11.8299 3.19222 11.5068L2.27708 10.3184C2.01062 10.5235 1.25815 11.0171 0.783542 11.6179C0.533058 11.9349 0.298818 12.3499 0.256646 12.8489C0.21248 13.3714 0.387658 13.879 0.763215 14.3417L1.92788 13.3965ZM3.19225 11.5068C3.7826 11.0522 4.42726 10.8049 5.06756 10.747L4.93244 9.25305C3.9939 9.33794 3.08133 9.699 2.27704 10.3184L3.19225 11.5068ZM5.5 7.25C4.5335 7.25 3.75 6.4665 3.75 5.5H2.25C2.25 7.29492 3.70507 8.75 5.5 8.75V7.25ZM3.75 5.5C3.75 4.5335 4.5335 3.75 5.5 3.75V2.25C3.70507 2.25 2.25 3.70508 2.25 5.5H3.75ZM7.68936 11.4733C7.25959 11.739 6.19706 12.2962 5.51955 12.9849C5.17103 13.3391 4.82343 13.8221 4.76005 14.4242C4.69225 15.0683 4.96565 15.6646 5.48722 16.1806L6.54218 15.1142C6.24789 14.8231 6.24428 14.6527 6.25181 14.5812C6.26376 14.4676 6.34384 14.2859 6.58883 14.0368C7.09836 13.5189 7.88624 13.1152 8.47824 12.7491L7.68936 11.4733ZM5.48721 16.1806C6.34883 17.033 7.41616 17.75 8.81563 17.75V16.25C7.98288 16.25 7.27473 15.839 6.54218 15.1142L5.48721 16.1806ZM8.81563 17.75H15.1844V16.25H8.81563V17.75ZM15.1844 17.75C16.5839 17.75 17.6512 17.033 18.5128 16.1806L17.4578 15.1142C16.7252 15.839 16.0171 16.25 15.1844 16.25V17.75ZM18.5128 16.1806C19.0343 15.6646 19.3077 15.0683 19.2399 14.4242C19.1766 13.8221 18.829 13.3391 18.4805 12.9849C17.8029 12.2962 16.7404 11.739 16.3106 11.4733L15.5218 12.7491C16.1138 13.1152 16.9016 13.5189 17.4112 14.0368C17.6562 14.2859 17.7362 14.4676 17.7482 14.5812C17.7557 14.6527 17.7521 14.8231 17.4578 15.1142L18.5128 16.1806ZM16.3106 11.4733C13.6728 9.84223 10.3272 9.84223 7.68936 11.4733L8.47824 12.7491C10.6326 11.417 13.3674 11.417 15.5218 12.7491L16.3106 11.4733ZM14.75 4.5C14.75 6.01879 13.5188 7.25 12 7.25V8.75C14.3472 8.75 16.25 6.84721 16.25 4.5H14.75ZM12 7.25C10.4812 7.25 9.25 6.01879 9.25 4.5H7.75C7.75 6.84721 9.65278 8.75 12 8.75V7.25ZM9.25 4.5C9.25 2.98121 10.4812 1.75 12 1.75V0.25C9.65278 0.25 7.75 2.15279 7.75 4.5H9.25ZM12 1.75C13.5188 1.75 14.75 2.98121 14.75 4.5H16.25C16.25 2.15279 14.3472 0.25 12 0.25V1.75Z" fill="white"/>
</svg>
