<svg width="18" height="18" viewBox="0 0 18 18" fill="none" xmlns="http://www.w3.org/2000/svg">
<path d="M10.6667 17.3334V5.66669M10.6667 17.3334H5.66675C3.30972 17.3334 2.13121 17.3334 1.39898 16.6011C0.666748 15.8689 0.666748 14.6904 0.666748 12.3334V5.66669C0.666748 3.30966 0.666748 2.13115 1.39898 1.39892C2.13121 0.666687 3.30972 0.666687 5.66675 0.666687C8.02375 0.666687 9.20225 0.666687 9.9345 1.39892C10.6667 2.13115 10.6667 3.30966 10.6667 5.66669M10.6667 17.3334L14.0001 17.3334C15.5714 17.3334 16.3571 17.3334 16.8452 16.8452C17.3334 16.357 17.3334 15.5714 17.3334 14V9.00002C17.3334 7.42869 17.3334 6.64299 16.8452 6.15484C16.3571 5.66669 15.5714 5.66669 14.0001 5.66669H10.6667M4.41675 8.16669H3.58342M7.75008 8.16669H6.91675M4.41675 4.83335H3.58342M4.41675 11.5H3.58342M7.75008 4.83335H6.91675M7.75008 11.5H6.91675M14.4167 11.5H13.5834M14.4167 8.16669H13.5834" stroke="white" stroke-width="1.25" stroke-linecap="round"/>
</svg>
