<svg width="22" height="22" viewBox="0 0 22 22" fill="none" xmlns="http://www.w3.org/2000/svg">
<path d="M11.5 21.75C11.9142 21.75 12.25 21.4142 12.25 21C12.25 20.5858 11.9142 20.25 11.5 20.25V21.75ZM1.71266 19.1966L1.19532 19.7396L1.19534 19.7396L1.71266 19.1966ZM4.57757 14.4816L4.96128 15.126L4.96128 15.126L4.57757 14.4816ZM12.325 14.0245C12.7278 14.1211 13.1326 13.873 13.2293 13.4702C13.3259 13.0674 13.0778 12.6626 12.675 12.5659L12.325 14.0245ZM14.0491 19.5755L13.3028 19.6502L13.3089 19.7104L13.3245 19.7688L14.0491 19.5755ZM15.4771 20.9667L15.3273 21.7016L15.3686 21.71L15.4107 21.7138L15.4771 20.9667ZM18.9571 20.9967L18.9712 20.2467H18.9571V20.9967ZM20.9371 19.5755L21.6597 19.7763L21.6703 19.7381L21.6769 19.6989L20.9371 19.5755ZM20.9071 16.6373L21.6347 16.4553L21.6279 16.428L21.619 16.4014L20.9071 16.6373ZM15.7596 14.1173L15.0096 14.1148V14.1149L15.7596 14.1173ZM15.9156 12.9876L16.5751 13.3447L16.5806 13.3347L16.5857 13.3245L15.9156 12.9876ZM19.17 13.1579L18.4621 13.4058L18.4663 13.4172L19.17 13.1579ZM19.26 14.1173L18.51 14.1117V14.1117L19.26 14.1173ZM11.5 20.25H5.59087V21.75H11.5V20.25ZM5.59087 20.25C4.31842 20.25 3.26584 19.6404 2.22998 18.6536L1.19534 19.7396C2.36678 20.8556 3.77256 21.75 5.59087 21.75V20.25ZM2.23 18.6536C1.77937 18.2243 1.73427 17.9301 1.75377 17.7518C1.77833 17.5271 1.93184 17.2363 2.29197 16.8838C3.02893 16.1624 4.17252 15.5957 4.96128 15.126L4.19387 13.8372C3.56785 14.2099 2.14934 14.9244 1.24272 15.8118C0.781048 16.2637 0.342397 16.8592 0.262652 17.5888C0.177846 18.3646 0.516305 19.0927 1.19532 19.7396L2.23 18.6536ZM4.96128 15.126C7.18768 13.8003 9.85221 13.4311 12.325 14.0245L12.675 12.5659C9.8328 11.8839 6.7659 12.3057 4.19386 13.8372L4.96128 15.126ZM14.75 5.5C14.75 7.57107 13.0711 9.25 11 9.25V10.75C13.8995 10.75 16.25 8.39949 16.25 5.5H14.75ZM11 9.25C8.92893 9.25 7.25 7.57107 7.25 5.5H5.75C5.75 8.39949 8.10051 10.75 11 10.75V9.25ZM7.25 5.5C7.25 3.42893 8.92893 1.75 11 1.75V0.25C8.10051 0.25 5.75 2.60051 5.75 5.5H7.25ZM11 1.75C13.0711 1.75 14.75 3.42893 14.75 5.5H16.25C16.25 2.60051 13.8995 0.25 11 0.25V1.75ZM15.7596 14.628C14.2149 14.628 13.5397 15.7751 13.3695 16.4553L14.8247 16.8193C14.8567 16.6914 14.941 16.5096 15.0876 16.3689C15.2181 16.2438 15.4193 16.128 15.7596 16.128V14.628ZM13.3695 16.4553C13.3216 16.647 13.2963 16.9055 13.2804 17.1488C13.2635 17.4083 13.2542 17.7075 13.2511 18.0088C13.245 18.6046 13.2628 19.2506 13.3028 19.6502L14.7954 19.5008C14.7634 19.1809 14.7452 18.5976 14.7511 18.0242C14.754 17.7408 14.7627 17.4704 14.7773 17.2464C14.7929 17.0062 14.8126 16.8674 14.8247 16.8193L13.3695 16.4553ZM13.3245 19.7688C13.6495 20.9873 14.508 21.5345 15.3273 21.7016L15.627 20.2318C15.4315 20.192 15.2609 20.1159 15.1247 19.9974C14.9934 19.8833 14.8584 19.6995 14.7737 19.3822L13.3245 19.7688ZM15.4107 21.7138C15.9948 21.7657 18.3373 21.7467 18.9571 21.7467V20.2467C18.2569 20.2467 16.0394 20.2637 15.5435 20.2196L15.4107 21.7138ZM18.943 21.7466C19.5129 21.7573 20.1003 21.6583 20.6076 21.3237C21.1275 20.9807 21.4723 20.4506 21.6597 19.7763L20.2145 19.3747C20.1019 19.7798 19.9367 19.9693 19.7816 20.0716C19.6139 20.1822 19.3613 20.2541 18.9712 20.2468L18.943 21.7466ZM21.6769 19.6989C21.7182 19.4511 21.7471 18.8082 21.7508 18.2009C21.7528 17.8845 21.748 17.5541 21.7325 17.2592C21.7177 16.9801 21.6912 16.6811 21.6347 16.4553L20.1795 16.8193C20.198 16.8933 20.2202 17.0665 20.2345 17.3383C20.2481 17.5944 20.2527 17.8936 20.2509 18.1917C20.2491 18.4891 20.2409 18.7785 20.2297 19.0132C20.2241 19.1306 20.2178 19.2316 20.2115 19.3115C20.2084 19.3513 20.2053 19.384 20.2026 19.4096C20.2012 19.4223 20.2 19.4324 20.199 19.44C20.1985 19.4438 20.1981 19.4467 20.1978 19.4489C20.1977 19.4499 20.1975 19.4507 20.1975 19.4513C20.1974 19.4516 20.1974 19.4518 20.1973 19.4519C20.1973 19.4522 20.1974 19.4519 20.1973 19.4521C20.1973 19.4523 20.1973 19.452 20.1973 19.4521L21.6769 19.6989ZM21.619 16.4014C21.1834 15.0868 20.1355 14.628 19.266 14.628V16.128C19.445 16.128 19.6263 16.173 19.7794 16.2739C19.9239 16.3692 20.0851 16.5412 20.1952 16.8732L21.619 16.4014ZM15.7596 16.128H19.266V14.628H15.7596V16.128ZM15.7596 15.378C16.5096 15.3767 16.5096 15.3767 16.5096 15.3767C16.5096 15.3767 16.5096 15.3767 16.5096 15.3767C16.5096 15.3767 16.5096 15.3766 16.5096 15.3766C16.5096 15.3765 16.5096 15.3763 16.5096 15.3761C16.5096 15.3758 16.5096 15.3752 16.5096 15.3744C16.5096 15.3728 16.5096 15.3705 16.5096 15.3674C16.5096 15.3613 16.5096 15.3522 16.5095 15.3405C16.5095 15.3171 16.5095 15.2832 16.5094 15.2411C16.5093 15.157 16.5092 15.0403 16.5091 14.91C16.5089 14.6491 16.5089 14.3353 16.5096 14.1197L15.0096 14.1149C15.0089 14.3336 15.0089 14.6501 15.0091 14.911C15.0092 15.0417 15.0093 15.1587 15.0094 15.2431C15.0095 15.2853 15.0095 15.3193 15.0095 15.3428C15.0096 15.3545 15.0096 15.3636 15.0096 15.3698C15.0096 15.3729 15.0096 15.3753 15.0096 15.3769C15.0096 15.3776 15.0096 15.3783 15.0096 15.3787C15.0096 15.3789 15.0096 15.379 15.0096 15.3791C15.0096 15.3792 15.0096 15.3792 15.0096 15.3792C15.0096 15.3792 15.0096 15.3793 15.0096 15.3793C15.0096 15.3793 15.0096 15.3793 15.7596 15.378ZM16.5096 14.1198C16.5113 13.6135 16.4994 13.4845 16.5751 13.3447L15.2561 12.6305C14.9526 13.1911 15.0105 13.8273 15.0096 14.1148L16.5096 14.1198ZM16.5857 13.3245C17.0048 12.4911 18.1814 12.604 18.4621 13.4058L19.8779 12.91C19.1506 10.8334 16.2472 10.6585 15.2455 12.6507L16.5857 13.3245ZM18.4663 13.4172C18.4731 13.4358 18.4903 13.5052 18.5006 13.6498C18.5103 13.785 18.5113 13.9403 18.51 14.1117L20.01 14.1229C20.0113 13.9474 20.011 13.7415 19.9968 13.5429C19.9833 13.3538 19.9542 13.1169 19.8737 12.8986L18.4663 13.4172ZM18.51 14.1117C18.5083 14.3394 18.5099 14.6595 18.5118 14.9194C18.5127 15.05 18.5138 15.1667 18.5146 15.2507C18.515 15.2927 18.5154 15.3266 18.5156 15.35C18.5158 15.3617 18.5159 15.3708 18.5159 15.377C18.516 15.3801 18.516 15.3824 18.516 15.3841C18.516 15.3849 18.516 15.3855 18.516 15.3859C18.516 15.3861 18.516 15.3862 18.516 15.3864C18.516 15.3864 18.516 15.3864 18.516 15.3865C18.516 15.3865 18.516 15.3865 18.516 15.3865C18.516 15.3865 18.516 15.3865 19.266 15.378C20.016 15.3695 20.016 15.3695 20.016 15.3695C20.016 15.3695 20.016 15.3695 20.016 15.3694C20.016 15.3694 20.016 15.3694 20.016 15.3693C20.0159 15.3693 20.0159 15.3691 20.0159 15.3689C20.0159 15.3686 20.0159 15.368 20.0159 15.3672C20.0159 15.3657 20.0159 15.3634 20.0159 15.3604C20.0158 15.3544 20.0157 15.3455 20.0156 15.334C20.0153 15.311 20.015 15.2775 20.0146 15.236C20.0137 15.1529 20.0127 15.0375 20.0117 14.9083C20.0098 14.6487 20.0084 14.3384 20.01 14.1229L18.51 14.1117Z" fill="white"/>
</svg>
