<svg width="19" height="22" viewBox="0 0 19 22" fill="none" xmlns="http://www.w3.org/2000/svg">
<path d="M1 12V11.1963C1 8.22892 1 6.74523 1.46894 5.56024C2.22281 3.65521 3.81714 2.15255 5.83836 1.44201C7.09563 1.00003 8.6698 1.00003 11.8182 1.00003C13.6173 1.00003 14.5168 1.00003 15.2352 1.25259C16.3902 1.65861 17.3012 2.51728 17.732 3.60587C18 4.283 18 5.13082 18 6.82646V12M1 11C1 9.1591 2.49238 7.66667 4.33333 7.66667C4.99912 7.66667 5.78404 7.78333 6.43137 7.60988C7.00652 7.45576 7.45576 7.00652 7.6099 6.43136C7.7833 5.78404 7.6667 4.99912 7.6667 4.33333C7.6667 2.49238 9.1591 1 11 1M1 21V18M1 18V16.2C1 15.6343 1 15.3515 1.17574 15.1757C1.35147 15 1.63431 15 2.2 15H3C3.82843 15 4.5 15.6716 4.5 16.5C4.5 17.3284 3.82843 18 3 18H1ZM18 15H16.5C15.5572 15 15.0858 15 14.7929 15.2929C14.5 15.5858 14.5 16.0572 14.5 17V18M14.5 18V21M14.5 18H17M11.5 18C11.5 19.6569 10.1569 21 8.5 21C8.1262 21 7.9392 21 7.8 20.9196C7.46665 20.7272 7.5 20.3376 7.5 20V16C7.5 15.6624 7.46665 15.2728 7.8 15.0804C7.9392 15 8.1262 15 8.5 15C10.1569 15 11.5 16.3431 11.5 18Z" stroke="white" stroke-width="1.5" stroke-linecap="round" stroke-linejoin="round"/>
</svg>
