<svg width="20" height="22" viewBox="0 0 20 22" fill="none" xmlns="http://www.w3.org/2000/svg">
<path d="M16 15L17.8398 16.5858C18.6133 17.2525 19 17.5858 19 18C19 18.4142 18.6133 18.7475 17.8398 19.4142L16 21M12 15L10.1602 16.5858C9.3867 17.2525 9 17.5858 9 18C9 18.4142 9.3867 18.7475 10.1602 19.4142L12 21M18 12.0032V6.8199C18 5.12616 18 4.27929 17.732 3.60291C17.3013 2.51555 16.3902 1.65784 15.2352 1.25228C14.5168 1 13.6173 1 11.8182 1C8.6698 1 7.09563 1 5.83836 1.44148C3.81714 2.15122 2.22281 3.6522 1.46894 5.55509C1 6.73875 1 8.22077 1 11.1848V13.731C1 16.8013 1 18.3364 1.8477 19.4025C2.09058 19.708 2.37862 19.9792 2.70307 20.2078C3.61506 20.8506 4.85019 20.9757 7 21M1 11C1 9.159 2.49238 7.66667 4.33333 7.66667C4.99912 7.66667 5.78404 7.78333 6.43137 7.60988C7.00652 7.45576 7.45576 7.00652 7.60988 6.43136C7.78333 5.78404 7.66667 4.99912 7.66667 4.33333C7.66667 2.49238 9.1591 1 11 1" stroke="white" stroke-width="1.5" stroke-linecap="round" stroke-linejoin="round"/>
</svg>
