<svg width="22" height="20" viewBox="0 0 22 20" fill="none" xmlns="http://www.w3.org/2000/svg">
<path d="M13.1787 6.15491C12.7645 6.15491 12.4287 6.49069 12.4287 6.90491C12.4287 7.31912 12.7645 7.65491 13.1787 7.65491V6.15491ZM17.1787 7.65491C17.5929 7.65491 17.9287 7.31912 17.9287 6.90491C17.9287 6.49069 17.5929 6.15491 17.1787 6.15491V7.65491ZM13.1787 9.65491C12.7645 9.65491 12.4287 9.99069 12.4287 10.4049C12.4287 10.8191 12.7645 11.1549 13.1787 11.1549V9.65491ZM16.1787 11.1549C16.5929 11.1549 16.9287 10.8191 16.9287 10.4049C16.9287 9.99069 16.5929 9.65491 16.1787 9.65491V11.1549ZM3.49946 13.5869C3.32384 13.9621 3.48558 14.4085 3.86073 14.5842C4.23587 14.7598 4.68235 14.598 4.85796 14.2229L3.49946 13.5869ZM10.4995 14.2229C10.6751 14.598 11.1216 14.7598 11.4967 14.5842C11.8718 14.4085 12.0336 13.9621 11.858 13.5869L10.4995 14.2229ZM13.1787 7.65491H17.1787V6.15491H13.1787V7.65491ZM13.1787 11.1549H16.1787V9.65491H13.1787V11.1549ZM6.17871 1.65491H16.1787V0.154907H6.17871V1.65491ZM16.1787 1.65491C18.5259 1.65491 20.4287 3.5577 20.4287 5.90491H21.9287C21.9287 2.72927 19.3543 0.154907 16.1787 0.154907V1.65491ZM20.4287 5.90491V13.9049H21.9287V5.90491H20.4287ZM20.4287 13.9049C20.4287 16.2521 18.5259 18.1549 16.1787 18.1549V19.6549C19.3543 19.6549 21.9287 17.0805 21.9287 13.9049H20.4287ZM16.1787 18.1549H6.17871V19.6549H16.1787V18.1549ZM6.17871 18.1549C3.8315 18.1549 1.92871 16.2521 1.92871 13.9049H0.428711C0.428711 17.0805 3.00307 19.6549 6.17871 19.6549V18.1549ZM1.92871 13.9049V5.90491H0.428711V13.9049H1.92871ZM1.92871 5.90491C1.92871 3.5577 3.8315 1.65491 6.17871 1.65491V0.154907C3.00307 0.154907 0.428711 2.72927 0.428711 5.90491H1.92871ZM4.85796 14.2229C5.30646 13.2648 6.41918 12.6736 7.65997 12.6553C8.89164 12.6371 10.0144 13.1867 10.4995 14.2229L11.858 13.5869C11.0552 11.8722 9.28214 11.1312 7.63783 11.1555C6.00266 11.1796 4.25927 11.9639 3.49946 13.5869L4.85796 14.2229ZM8.92871 6.90491C8.92871 7.59529 8.36907 8.15491 7.67871 8.15491V9.65491C9.19749 9.65491 10.4287 8.42373 10.4287 6.90491H8.92871ZM7.67871 8.15491C6.98835 8.15491 6.42871 7.59529 6.42871 6.90491H4.92871C4.92871 8.42373 6.15993 9.65491 7.67871 9.65491V8.15491ZM6.42871 6.90491C6.42871 6.21455 6.98835 5.65491 7.67871 5.65491V4.15491C6.15993 4.15491 4.92871 5.38612 4.92871 6.90491H6.42871ZM7.67871 5.65491C8.36907 5.65491 8.92871 6.21455 8.92871 6.90491H10.4287C10.4287 5.38612 9.19749 4.15491 7.67871 4.15491V5.65491Z" fill="white"/>
</svg>
