<svg width="16" height="16" viewBox="0 0 16 16" fill="none" xmlns="http://www.w3.org/2000/svg">
<path d="M8.3335 15.1666C8.60964 15.1666 8.8335 14.9428 8.8335 14.6666C8.8335 14.3905 8.60964 14.1666 8.3335 14.1666V15.1666ZM1.8086 13.4644L1.46371 13.8264L1.46372 13.8264L1.8086 13.4644ZM3.71854 10.321L3.97435 10.7506L3.97435 10.7506L3.71854 10.321ZM8.3335 9.40344L8.26367 9.89854L8.26369 9.89854L8.3335 9.40344ZM9.81124 10.3168C10.0669 10.4212 10.3588 10.2985 10.4631 10.0428C10.5674 9.78715 10.4448 9.49531 10.1891 9.39097L9.81124 10.3168ZM11.8335 14.6666C11.8335 14.9428 12.0574 15.1666 12.3335 15.1666C12.6096 15.1666 12.8335 14.9428 12.8335 14.6666H11.8335ZM12.8335 9.99998C12.8335 9.72384 12.6096 9.49998 12.3335 9.49998C12.0574 9.49998 11.8335 9.72384 11.8335 9.99998H12.8335ZM10.0002 11.8333C9.72402 11.8333 9.50016 12.0572 9.50016 12.3333C9.50016 12.6095 9.72402 12.8333 10.0002 12.8333V11.8333ZM14.6668 12.8333C14.943 12.8333 15.1668 12.6095 15.1668 12.3333C15.1668 12.0572 14.943 11.8333 14.6668 11.8333V12.8333ZM8.3335 14.1666H4.39408V15.1666H8.3335V14.1666ZM4.39408 14.1666C3.54578 14.1666 2.84406 13.7602 2.15348 13.1023L1.46372 13.8264C2.24468 14.5704 3.18187 15.1666 4.39408 15.1666V14.1666ZM2.1535 13.1024C1.85308 12.8161 1.82301 12.6201 1.83601 12.5011C1.85238 12.3514 1.95472 12.1575 2.19481 11.9225C2.68612 11.4416 3.44851 11.0637 3.97435 10.7506L3.46274 9.89143C3.0454 10.1399 2.09972 10.6162 1.49531 11.2079C1.18753 11.5091 0.895094 11.9061 0.841931 12.3925C0.785394 12.9097 1.01103 13.3951 1.46371 13.8264L2.1535 13.1024ZM3.97435 10.7506C5.27379 9.97691 6.79731 9.69172 8.26367 9.89854L8.40332 8.90834C6.71874 8.67075 4.96436 8.9973 3.46274 9.89143L3.97435 10.7506ZM8.26369 9.89854C8.79442 9.97337 9.31114 10.1127 9.81124 10.3168L10.1891 9.39097C9.61265 9.15572 9.01591 8.9947 8.4033 8.90833L8.26369 9.89854ZM10.5002 4.33331C10.5002 5.71403 9.38089 6.83331 8.00016 6.83331V7.83331C9.93317 7.83331 11.5002 6.26631 11.5002 4.33331H10.5002ZM8.00016 6.83331C6.61945 6.83331 5.50016 5.71402 5.50016 4.33331H4.50016C4.50016 6.26631 6.06717 7.83331 8.00016 7.83331V6.83331ZM5.50016 4.33331C5.50016 2.9526 6.61945 1.83331 8.00016 1.83331V0.833313C6.06717 0.833313 4.50016 2.40032 4.50016 4.33331H5.50016ZM8.00016 1.83331C9.38089 1.83331 10.5002 2.9526 10.5002 4.33331H11.5002C11.5002 2.40032 9.93317 0.833313 8.00016 0.833313V1.83331ZM12.8335 14.6666V9.99998H11.8335V14.6666H12.8335ZM10.0002 12.8333H14.6668V11.8333H10.0002V12.8333Z" fill="white"/>
</svg>
