<svg width="22" height="21" viewBox="0 0 22 21" fill="none" xmlns="http://www.w3.org/2000/svg">
<path d="M14.5 10.3109C14.5 12.2439 12.933 13.8109 11 13.8109C9.067 13.8109 7.5 12.2439 7.5 10.3109C7.5 8.37786 9.067 6.81086 11 6.81086C12.933 6.81086 14.5 8.37786 14.5 10.3109Z" stroke="white" stroke-width="1.5" stroke-linecap="round"/>
<path d="M20.011 12.4074C20.5329 12.2667 20.7939 12.1963 20.8969 12.0617C21 11.9272 21 11.7107 21 11.2778V9.34406C21 8.91116 21 8.69466 20.8969 8.56016C20.7938 8.42556 20.5329 8.35516 20.011 8.21444C18.0606 7.68845 16.8399 5.64937 17.3433 3.71173C17.4817 3.17885 17.5509 2.91242 17.4848 2.75615C17.4187 2.59988 17.2291 2.4922 16.8497 2.27682L15.125 1.29759C14.7528 1.08625 14.5667 0.980578 14.3997 1.00308C14.2326 1.02558 14.0442 1.21359 13.6672 1.58959C12.208 3.04534 9.7936 3.04528 8.33434 1.5895C7.95743 1.21349 7.76898 1.02549 7.60193 1.00298C7.43489 0.980478 7.24877 1.08615 6.87653 1.29749L5.15184 2.27673C4.77253 2.49209 4.58287 2.59977 4.51678 2.75601C4.45068 2.91226 4.51987 3.17873 4.65825 3.71166C5.16137 5.64936 3.93972 7.68849 1.98902 8.21446C1.46712 8.35516 1.20617 8.42556 1.10308 8.56006C1 8.69466 1 8.91116 1 9.34406V11.2778C1 11.7107 1 11.9272 1.10308 12.0617C1.20615 12.1963 1.46711 12.2667 1.98902 12.4074C3.9394 12.9334 5.16008 14.9725 4.65672 16.9101C4.51829 17.443 4.44907 17.7094 4.51516 17.8657C4.58126 18.022 4.77092 18.1297 5.15025 18.345L6.87495 19.3243C7.24721 19.5356 7.43334 19.6413 7.6004 19.6188C7.76746 19.5963 7.95588 19.4082 8.33271 19.0322C9.7927 17.5753 12.2088 17.5752 13.6689 19.0321C14.0457 19.4082 14.2341 19.5962 14.4012 19.6187C14.5682 19.6412 14.7544 19.5355 15.1266 19.3242L16.8513 18.3449C17.2307 18.1296 17.4204 18.0219 17.4864 17.8656C17.5525 17.7093 17.4833 17.4429 17.3448 16.91C16.8412 14.9725 18.0609 12.9335 20.011 12.4074Z" stroke="white" stroke-width="1.5" stroke-linecap="round"/>
</svg>
