<svg width="23" height="22" viewBox="0 0 23 22" fill="none" xmlns="http://www.w3.org/2000/svg">
<path d="M8.33333 1L13.8333 1C16.4002 1 17.6837 1 18.6641 1.49955C19.5265 1.93897 20.2277 2.64013 20.6671 3.50254C21.1667 4.48297 21.1667 5.76643 21.1667 8.33333V13.8333C21.1667 16.4002 21.1667 17.6837 20.6671 18.6641C20.2277 19.5265 19.5265 20.2277 18.6641 20.6671C17.6837 21.1667 16.4002 21.1667 13.8333 21.1667H8.33333M8.33333 1C5.76643 1 4.48297 1 3.50254 1.49955C2.64013 1.93897 1.93897 2.64013 1.49955 3.50254C1 4.48297 1 5.76643 1 8.33333L1 13.8333C1 16.4002 1 17.6837 1.49955 18.6641C1.93897 19.5265 2.64013 20.2277 3.50254 20.6671C4.48297 21.1667 5.76643 21.1667 8.33333 21.1667M8.33333 1L8.33333 21.1667M8.33333 11.0833L22.0833 11.0833" stroke="white" stroke-width="1.67" stroke-linecap="round"/>
</svg>
