<svg width="23" height="24" viewBox="0 0 23 24" fill="none" xmlns="http://www.w3.org/2000/svg">
<path d="M18.8191 1C18.8191 0.620304 18.5113 0.3125 18.1316 0.3125C17.7519 0.3125 17.4441 0.620304 17.4441 1H18.8191ZM17.4441 3.2C17.4441 3.5797 17.7519 3.8875 18.1316 3.8875C18.5113 3.8875 18.8191 3.5797 18.8191 3.2H17.4441ZM5.55592 1C5.55592 0.620304 5.24812 0.3125 4.86842 0.3125C4.48873 0.3125 4.18092 0.620304 4.18092 1H5.55592ZM4.18092 3.2C4.18092 3.5797 4.48873 3.8875 4.86842 3.8875C5.24812 3.8875 5.55592 3.5797 5.55592 3.2H4.18092ZM8.60197 17.5C8.60197 17.8797 8.90978 18.1875 9.28948 18.1875C9.66917 18.1875 9.97697 17.8797 9.97697 17.5L8.60197 17.5ZM9.28946 13.4819L8.60196 13.4819L8.60196 13.4819L9.28946 13.4819ZM8.18421 12.4125C7.80451 12.4125 7.49671 12.7203 7.49671 13.1C7.49671 13.4797 7.80451 13.7875 8.18421 13.7875V12.4125ZM12.6571 17.2599C12.5244 17.6156 12.7053 18.0116 13.0611 18.1442C13.4169 18.2768 13.8128 18.0959 13.9454 17.7401L12.6571 17.2599ZM14.7983 13.4841L15.4425 13.7243L15.4426 13.7242L14.7983 13.4841ZM12.6053 12.4125C12.2256 12.4125 11.9178 12.7203 11.9178 13.1C11.9178 13.4797 12.2256 13.7875 12.6053 13.7875V12.4125ZM20.6161 21.511L21.1197 21.9791L21.1197 21.9791L20.6161 21.511ZM2.38392 21.511L1.88033 21.9791L1.88035 21.9791L2.38392 21.511ZM4.86842 6.9125C4.48873 6.9125 4.18092 7.2203 4.18092 7.6C4.18092 7.9797 4.48873 8.2875 4.86842 8.2875V6.9125ZM18.1316 8.2875C18.5113 8.2875 18.8191 7.9797 18.8191 7.6C18.8191 7.2203 18.5113 6.9125 18.1316 6.9125V8.2875ZM17.4441 1V3.2H18.8191V1H17.4441ZM4.18092 1V3.2H5.55592V1H4.18092ZM9.97697 17.5L9.97696 13.4819L8.60196 13.4819L8.60197 17.5L9.97697 17.5ZM9.97696 13.4819C9.97696 12.9737 9.59541 12.4125 8.9519 12.4125V13.7875C8.82559 13.7875 8.7292 13.728 8.67544 13.6672C8.62282 13.6076 8.60196 13.5401 8.60196 13.4819H9.97696ZM8.9519 12.4125H8.18421V13.7875H8.9519V12.4125ZM13.9454 17.7401L15.4425 13.7243L14.1541 13.244L12.6571 17.2599L13.9454 17.7401ZM15.4426 13.7242C15.7029 13.0253 15.1309 12.4125 14.5071 12.4125V13.7875C14.3958 13.7875 14.2843 13.734 14.2107 13.637C14.1354 13.5376 14.1003 13.3885 14.1541 13.2441L15.4426 13.7242ZM14.5071 12.4125H12.6053V13.7875H14.5071V12.4125ZM1.6875 12.2675C1.6875 9.85293 1.68876 8.10632 1.85518 6.77451C2.01974 5.45764 2.33536 4.65112 2.8875 4.05705L1.88034 3.12096C1.04856 4.0159 0.672221 5.15214 0.490796 6.60402C0.311236 8.04098 0.3125 9.88912 0.3125 12.2675H1.6875ZM2.8875 4.05705C3.43301 3.47012 4.16299 3.14025 5.36382 2.96654C6.58989 2.78919 8.20175 2.7875 10.45 2.7875V1.4125C8.24348 1.4125 6.51426 1.41081 5.16697 1.60571C3.79443 1.80425 2.71876 2.21889 1.88034 3.12096L2.8875 4.05705ZM10.45 2.7875H12.55V1.4125H10.45V2.7875ZM12.55 2.7875C14.7982 2.7875 16.4101 2.78919 17.6362 2.96654C18.837 3.14025 19.567 3.47012 20.1125 4.05704L21.1197 3.12097C20.2813 2.21888 19.2056 1.80425 17.833 1.60571C16.4857 1.41081 14.7565 1.4125 12.55 1.4125V2.7875ZM20.1125 4.05704C20.6647 4.65111 20.9803 5.45764 21.1448 6.77451C21.3112 8.10632 21.3125 9.85293 21.3125 12.2675H22.6875C22.6875 9.88912 22.6888 8.04098 22.5092 6.60402C22.3278 5.15214 21.9514 4.0159 21.1197 3.12097L20.1125 4.05704ZM21.3125 12.2675V12.8325H22.6875V12.2675H21.3125ZM21.3125 12.8325C21.3125 15.2471 21.3112 16.9937 21.1448 18.3255C20.9803 19.6424 20.6647 20.4489 20.1125 21.043L21.1197 21.9791C21.9514 21.0841 22.3278 19.9479 22.5092 18.496C22.6888 17.059 22.6875 15.2109 22.6875 12.8325H21.3125ZM20.1125 21.043C19.567 21.6299 18.837 21.9598 17.6362 22.1335C16.4101 22.3108 14.7982 22.3125 12.55 22.3125V23.6875C14.7565 23.6875 16.4857 23.6892 17.833 23.4943C19.2056 23.2958 20.2813 22.8811 21.1197 21.9791L20.1125 21.043ZM12.55 22.3125H10.45V23.6875H12.55V22.3125ZM10.45 22.3125C8.20175 22.3125 6.58989 22.3108 5.36381 22.1335C4.16298 21.9598 3.433 21.6299 2.8875 21.043L1.88035 21.9791C2.71876 22.8811 3.79443 23.2958 5.16697 23.4943C6.51426 23.6892 8.24348 23.6875 10.45 23.6875V22.3125ZM2.88751 21.043C2.33536 20.4489 2.01974 19.6424 1.85518 18.3255C1.68876 16.9937 1.6875 15.2471 1.6875 12.8325H0.3125C0.3125 15.2109 0.311236 17.059 0.490796 18.496C0.672222 19.9479 1.04857 21.0841 1.88033 21.9791L2.88751 21.043ZM1.6875 12.8325V12.2675H0.3125V12.8325H1.6875ZM4.86842 8.2875H18.1316V6.9125H4.86842V8.2875Z" fill="white"/>
</svg>
