<svg width="22" height="22" viewBox="0 0 22 22" fill="none" xmlns="http://www.w3.org/2000/svg">
<path d="M21.0832 13.75L20.2482 13.75V13.75L21.0832 13.75ZM20.5836 18.5808L21.3276 18.9599L20.5836 18.5808ZM13.7498 21.0834L13.7498 21.9184H13.7498L13.7498 21.0834ZM18.5806 20.5838L18.9597 21.3278L18.9597 21.3278L18.5806 20.5838ZM13.7498 0.916687L13.7498 0.081687L13.7498 0.916687ZM18.5806 1.41624L18.9597 0.67225L18.5806 1.41624ZM21.0832 8.25002L21.9182 8.25002V8.25002L21.0832 8.25002ZM20.5836 3.41923L21.3276 3.04015L21.3276 3.04015L20.5836 3.41923ZM0.916504 8.25002L1.7515 8.25002L0.916504 8.25002ZM1.41606 3.41923L0.672067 3.04015L1.41606 3.41923ZM3.41905 1.41624L3.03996 0.67225L3.03996 0.67225L3.41905 1.41624ZM0.916504 13.75L0.0815042 13.75L0.916504 13.75ZM1.41606 18.5808L0.672067 18.9599L0.672067 18.9599L1.41606 18.5808ZM3.41905 20.5838L3.03997 21.3278L3.41905 20.5838ZM8.24984 10.165C7.78868 10.165 7.41484 10.5389 7.41484 11C7.41484 11.4612 7.78868 11.835 8.24984 11.835L8.24984 10.165ZM21.9998 11.835C22.461 11.835 22.8348 11.4612 22.8348 11C22.8348 10.5389 22.461 10.165 21.9998 10.165L21.9998 11.835ZM1.7515 13.75L1.7515 8.25002L0.0815039 8.25002L0.0815042 13.75L1.7515 13.75ZM8.24984 1.75169L13.7498 1.75169L13.7498 0.081687L8.24984 0.0816873L8.24984 1.75169ZM20.2482 8.25002V13.75H21.9182V8.25002H20.2482ZM13.7498 20.2484H8.24984V21.9184H13.7498V20.2484ZM20.2482 13.75C20.2482 15.0473 20.2475 15.97 20.1885 16.6923C20.1303 17.405 20.0194 17.8488 19.8396 18.2017L21.3276 18.9599C21.6474 18.3323 21.7863 17.6443 21.853 16.8283C21.9188 16.0222 21.9182 15.0197 21.9182 13.75L20.2482 13.75ZM13.7498 21.9184C15.0195 21.9184 16.022 21.919 16.8282 21.8531C17.6441 21.7865 18.3322 21.6475 18.9597 21.3278L18.2015 19.8398C17.8487 20.0196 17.4048 20.1305 16.6922 20.1887C15.9698 20.2477 15.0471 20.2484 13.7498 20.2484L13.7498 21.9184ZM19.8396 18.2017C19.4803 18.907 18.9068 19.4804 18.2015 19.8398L18.9597 21.3278C19.9792 20.8083 20.8081 19.9794 21.3276 18.9599L19.8396 18.2017ZM13.7498 1.75169C15.0471 1.75169 15.9698 1.75234 16.6922 1.81136C17.4048 1.86958 17.8487 1.98043 18.2015 2.16023L18.9597 0.67225C18.3322 0.3525 17.6441 0.213567 16.8282 0.146904C16.022 0.0810376 15.0195 0.081687 13.7498 0.081687L13.7498 1.75169ZM21.9182 8.25002C21.9182 6.98034 21.9188 5.97787 21.853 5.1717C21.7863 4.35578 21.6474 3.66769 21.3276 3.04015L19.8396 3.79831C20.0194 4.1512 20.1303 4.59505 20.1885 5.30769C20.2475 6.03008 20.2482 6.95279 20.2482 8.25002L21.9182 8.25002ZM18.2015 2.16023C18.9068 2.5196 19.4803 3.09302 19.8396 3.79831L21.3276 3.04015C20.8081 2.02062 19.9792 1.19172 18.9597 0.67225L18.2015 2.16023ZM1.7515 8.25002C1.7515 6.95279 1.75215 6.03008 1.81117 5.30769C1.8694 4.59505 1.98024 4.1512 2.16005 3.79831L0.672067 3.04015C0.352317 3.66769 0.213384 4.35578 0.146721 5.1717C0.0808544 5.97787 0.0815039 6.98035 0.0815039 8.25002L1.7515 8.25002ZM8.24984 0.0816873C6.98016 0.0816873 5.97769 0.081038 5.17152 0.146905C4.3556 0.213568 3.66751 0.3525 3.03996 0.67225L3.79813 2.16023C4.15101 1.98043 4.59487 1.86958 5.30751 1.81136C6.0299 1.75234 6.95261 1.75169 8.24984 1.75169L8.24984 0.0816873ZM2.16005 3.79831C2.51941 3.09302 3.09283 2.5196 3.79813 2.16023L3.03996 0.67225C2.02044 1.19172 1.19154 2.02062 0.672067 3.04015L2.16005 3.79831ZM0.0815042 13.75C0.0815042 15.0197 0.0808549 16.0222 0.146722 16.8283C0.213385 17.6443 0.352317 18.3323 0.672067 18.9599L2.16005 18.2017C1.98024 17.8488 1.8694 17.405 1.81118 16.6923C1.75215 15.97 1.7515 15.0473 1.7515 13.75L0.0815042 13.75ZM8.24984 20.2484C6.95261 20.2484 6.0299 20.2477 5.30751 20.1887C4.59487 20.1305 4.15101 20.0196 3.79813 19.8398L3.03997 21.3278C3.66751 21.6475 4.3556 21.7865 5.17152 21.8531C5.97769 21.919 6.98016 21.9184 8.24984 21.9184L8.24984 20.2484ZM0.672067 18.9599C1.19154 19.9794 2.02044 20.8083 3.03997 21.3278L3.79813 19.8398C3.09284 19.4804 2.51941 18.907 2.16005 18.2017L0.672067 18.9599ZM9.08484 21.0834L9.08484 0.916687L7.41484 0.916687L7.41484 21.0834L9.08484 21.0834ZM8.24984 11.835L21.9998 11.835L21.9998 10.165L8.24984 10.165L8.24984 11.835Z" fill="white"/>
</svg>
