<svg width="19" height="22" viewBox="0 0 19 22" fill="none" xmlns="http://www.w3.org/2000/svg">
<path d="M5.00699 16C4.97195 15.2336 4.6141 15.0342 3.5086 15H2.0102C1.45851 15 1.01127 15.4477 1.01127 16V18.8944C1.01127 19.6301 0.874351 20.6207 1.55495 20.8983C1.67649 20.9478 1.82555 20.9801 2.0102 21H4.40763C4.73865 21 5.00699 20.7314 5.00699 20.4V18.9C5.00699 18.6791 4.8281 18.5 4.60742 18.5H3.5086M8.00383 15H11.5M8.00383 21H9.75193M9.75193 21H11.5M9.75193 21V15.1399M14.4968 21V15.6C14.4968 15.2686 14.7651 15 15.0962 15H17.9931M14.4968 18H16.9941M1.01074 12V11.1963C1.01074 8.22889 1.01074 6.7452 1.47949 5.56021C2.23305 3.65518 3.82674 2.15252 5.84713 1.44198C7.10389 1 8.67743 1 11.8245 1C13.6229 1 14.522 1 15.2401 1.25256C16.3947 1.65858 17.3053 2.51725 17.7359 3.60584C18.0038 4.28297 18.0038 5.13079 18.0038 6.82643V12M1.01074 11C1.01074 9.1591 2.50252 7.66667 4.34272 7.66667C5.00824 7.66667 5.79284 7.78333 6.4399 7.60988C7.01482 7.45576 7.46388 7.00652 7.61793 6.43136C7.79133 5.78404 7.67473 4.99912 7.67473 4.33333C7.67473 2.49238 9.16653 1 11.0066 1" stroke="white" stroke-width="1.5" stroke-linecap="round" stroke-linejoin="round"/>
</svg>
