<svg width="20" height="22" viewBox="0 0 20 22" fill="none" xmlns="http://www.w3.org/2000/svg">
<path d="M2 13H6.42109C7.35119 13 7.81624 13 7.94012 13.2801C8.064 13.5603 7.74755 13.8963 7.11466 14.5684L3.47691 18.4316C2.84402 19.1037 2.52757 19.4397 2.65145 19.7199C2.77533 20 3.24038 20 4.17048 20H8M2 8L4.10557 3.30527C4.49585 2.43509 4.69098 2 5 2C5.30902 2 5.50415 2.43509 5.89443 3.30527L8 8M15.5 19V3M15.5 19C14.7998 19 13.4915 17.0057 13 16.5M15.5 19C16.2002 19 17.5085 17.0057 18 16.5" stroke="white" stroke-width="2.3" stroke-linecap="round" stroke-linejoin="round"/>
</svg>
