<svg width="19" height="22" viewBox="0 0 19 22" fill="none" xmlns="http://www.w3.org/2000/svg">
<path d="M1 12V11.1963C1 8.22889 1 6.7452 1.46894 5.56021C2.22281 3.65518 3.81714 2.15252 5.83836 1.44198C7.09563 1 8.6698 1 11.8182 1C13.6173 1 14.5168 1 15.2352 1.25256C16.3902 1.65858 17.3012 2.51725 17.732 3.60584C18 4.28297 18 5.13079 18 6.82643V12M1 11C1 9.1591 2.49238 7.66667 4.33333 7.66667C4.99912 7.66667 5.78404 7.78333 6.43137 7.60988C7.00652 7.45576 7.45576 7.00652 7.6099 6.43136C7.7833 5.78404 7.6667 4.99912 7.6667 4.33333C7.6667 2.49238 9.1591 1 11 1M1 15H4.4C4.64721 15 4.78833 15.2822 4.64 15.48L1.22 20.04C0.92334 20.4355 1.20557 21 1.7 21H5M8 15H9.75M9.75 15H11.5M9.75 15V20.6787M8 21H11.5M14.5 21V15H16.3618C17.0675 15 17.7977 15.3516 17.9492 16.0408C18.0128 16.33 18.0109 16.6038 17.9488 16.8923C17.7936 17.6138 17.0392 18 16.3012 18H15.5" stroke="white" stroke-width="1.5" stroke-linecap="round" stroke-linejoin="round"/>
</svg>
