<svg width="21" height="21" viewBox="0 0 21 21" fill="none" xmlns="http://www.w3.org/2000/svg">
<path d="M2.39124 2.39124L1.86091 1.86091L1.86091 1.86091L2.39124 2.39124ZM18.6088 2.39124L19.1391 1.86092L19.1391 1.8609L18.6088 2.39124ZM18.6088 18.6088L19.1391 19.1392L19.1392 19.1391L18.6088 18.6088ZM2.39124 18.6088L1.8609 19.1391L1.86092 19.1391L2.39124 18.6088ZM13.4531 13.3948L14.1821 13.571L14.1821 13.5709L13.4531 13.3948ZM11.1539 15.3502L11.5484 15.988L11.5485 15.988L11.1539 15.3502ZM8.5199 16.4625L8.2986 17.1791L8.29879 17.1792L8.5199 16.4625ZM7.90982 16.07L8.46454 15.5652L8.46444 15.5651L7.90982 16.07ZM7.90982 9.9299L7.35523 9.42499L7.35514 9.42509L7.90982 9.9299ZM8.5199 9.5375L8.29879 8.82084L8.2986 8.82089L8.5199 9.5375ZM11.1539 10.6498L11.5485 10.012L11.5484 10.012L11.1539 10.6498ZM13.4531 12.6052L14.1821 12.4291L14.1821 12.429L13.4531 12.6052ZM1 6.75H20V5.25H1V6.75ZM14.8569 0.614128L11.8569 5.61413L13.1431 6.38587L16.1431 1.38587L14.8569 0.614128ZM7.85688 0.614128L4.85688 5.61413L6.14312 6.38587L9.14312 1.38587L7.85688 0.614128ZM1.75 10.5C1.75 8.23963 1.75159 6.6198 1.91722 5.3879C2.07994 4.17757 2.38853 3.45462 2.92157 2.92157L1.86091 1.86091C1.00271 2.71911 0.615679 3.81137 0.430593 5.18803C0.248407 6.54311 0.25 8.28203 0.25 10.5H1.75ZM2.92157 2.92157C3.45462 2.38853 4.17757 2.07994 5.3879 1.91722C6.6198 1.75159 8.23963 1.75 10.5 1.75V0.25C8.28203 0.25 6.54311 0.248407 5.18803 0.430593C3.81137 0.615679 2.71911 1.00271 1.86091 1.86091L2.92157 2.92157ZM10.5 1.75C12.7604 1.75 14.3802 1.75159 15.6121 1.91722C16.8224 2.07994 17.5454 2.38853 18.0785 2.92158L19.1391 1.8609C18.2809 1.00271 17.1886 0.615679 15.812 0.430593C14.4569 0.248407 12.7179 0.25 10.5 0.25V1.75ZM18.0785 2.92156C18.6115 3.45461 18.9201 4.17756 19.0828 5.38789C19.2484 6.6198 19.25 8.23963 19.25 10.5H20.75C20.75 8.28203 20.7516 6.54311 20.5694 5.18803C20.3843 3.81137 19.9973 2.71912 19.1391 1.86092L18.0785 2.92156ZM19.25 10.5C19.25 12.7604 19.2484 14.3802 19.0828 15.6121C18.9201 16.8224 18.6115 17.5454 18.0785 18.0785L19.1392 19.1391C19.9973 18.2809 20.3843 17.1886 20.5694 15.812C20.7516 14.4569 20.75 12.7179 20.75 10.5H19.25ZM18.0785 18.0785C17.5454 18.6115 16.8224 18.9201 15.6121 19.0828C14.3802 19.2484 12.7604 19.25 10.5 19.25V20.75C12.7179 20.75 14.4569 20.7516 15.812 20.5694C17.1886 20.3843 18.2809 19.9973 19.1391 19.1392L18.0785 18.0785ZM10.5 19.25C8.23963 19.25 6.6198 19.2484 5.38789 19.0828C4.17756 18.9201 3.45461 18.6115 2.92156 18.0785L1.86092 19.1391C2.71912 19.9973 3.81137 20.3843 5.18803 20.5694C6.54311 20.7516 8.28203 20.75 10.5 20.75V19.25ZM2.92158 18.0785C2.38853 17.5454 2.07994 16.8224 1.91722 15.6121C1.75159 14.3802 1.75 12.7604 1.75 10.5H0.25C0.25 12.7179 0.248407 14.4569 0.430593 15.812C0.615679 17.1886 1.00271 18.2809 1.8609 19.1391L2.92158 18.0785ZM12.7241 13.2186C12.7069 13.2898 12.6466 13.426 12.3167 13.6884C11.9828 13.954 11.4916 14.2594 10.7593 14.7124L11.5485 15.988C12.248 15.5552 12.8306 15.1963 13.2505 14.8623C13.6744 14.5251 14.0478 14.1265 14.1821 13.571L12.7241 13.2186ZM10.7594 14.7124C10.0502 15.151 9.57662 15.4424 9.21179 15.6114C8.84385 15.7818 8.74753 15.7478 8.74102 15.7458L8.29879 17.1792C8.85007 17.3493 9.37865 17.1872 9.84221 16.9725C10.3089 16.7564 10.8734 16.4056 11.5484 15.988L10.7594 14.7124ZM8.7412 15.7459C8.64422 15.7159 8.54772 15.6566 8.46454 15.5652L7.3551 16.5748C7.61078 16.8558 7.93446 17.0667 8.2986 17.1791L8.7412 15.7459ZM8.46444 15.5651C8.42653 15.5235 8.3442 15.3957 8.29721 14.9436C8.25097 14.4987 8.25 13.8903 8.25 13H6.75C6.75 13.8562 6.74903 14.5577 6.80525 15.0986C6.86071 15.6323 6.98329 16.1663 7.3552 16.5749L8.46444 15.5651ZM8.25 13C8.25 12.1097 8.25097 11.5013 8.29721 11.0564C8.3442 10.6043 8.42653 10.4764 8.46449 10.4347L7.35514 9.42509C6.98329 9.83367 6.86071 10.3676 6.80524 10.9013C6.74903 11.4423 6.75 12.1438 6.75 13H8.25ZM8.46441 10.4348C8.54764 10.3434 8.6442 10.2841 8.7412 10.2541L8.2986 8.82089C7.93448 8.93334 7.61086 9.14421 7.35523 9.42499L8.46441 10.4348ZM8.74102 10.2542C8.74753 10.2522 8.84385 10.2182 9.21179 10.3886C9.57662 10.5576 10.0502 10.849 10.7594 11.2876L11.5484 10.012C10.8734 9.59444 10.3089 9.24364 9.84221 9.02749C9.37865 8.81279 8.85007 8.65075 8.29879 8.82084L8.74102 10.2542ZM10.7593 11.2876C11.4916 11.7406 11.9828 12.046 12.3167 12.3116C12.6466 12.574 12.7069 12.7102 12.7241 12.7814L14.1821 12.429C14.0478 11.8735 13.6744 11.4749 13.2505 11.1377C12.8306 10.8037 12.248 10.4448 11.5485 10.012L10.7593 11.2876ZM12.7241 12.7813C12.7586 12.9243 12.7586 13.0757 12.7241 13.2187L14.1821 13.5709C14.2726 13.1965 14.2726 12.8035 14.1821 12.4291L12.7241 12.7813Z" fill="white"/>
</svg>
