<svg width="20" height="22" viewBox="0 0 20 22" fill="none" xmlns="http://www.w3.org/2000/svg">
<path d="M2 2H6.42109C7.35119 2 7.81624 2 7.94012 2.28013C8.064 2.56026 7.74755 2.89632 7.11466 3.56842L3.47691 7.43158C2.84402 8.10368 2.52757 8.43974 2.65145 8.71987C2.77533 9 3.24038 9 4.17048 9H8M2 20L4.10557 15.3053C4.49585 14.4351 4.69098 14 5 14C5.30902 14 5.50415 14.4351 5.89443 15.3053L8 20M15.5 19V3M15.5 19C14.7998 19 13.4915 17.0057 13 16.5M15.5 19C16.2002 19 17.5085 17.0057 18 16.5" stroke="white" stroke-width="2.3" stroke-linecap="round" stroke-linejoin="round"/>
</svg>
