<svg width="14" height="16" viewBox="0 0 14 16" fill="none" xmlns="http://www.w3.org/2000/svg">
<path d="M3 5.33331C3 4.27245 3.42143 3.25503 4.17157 2.50489C4.92172 1.75474 5.93913 1.33331 7 1.33331C8.06087 1.33331 9.07828 1.75474 9.82843 2.50489C10.5786 3.25503 11 4.27245 11 5.33331C11 9.99998 13 11.3333 13 11.3333H1C1 11.3333 3 9.99998 3 5.33331Z" fill="black" fill-opacity="0.2"/>
<path d="M5.86621 14C5.9778 14.2029 6.14184 14.3722 6.34121 14.4901C6.54057 14.608 6.76793 14.6702 6.99954 14.6702C7.23116 14.6702 7.45852 14.608 7.65788 14.4901C7.85725 14.3722 8.02129 14.2029 8.13288 14" fill="black" fill-opacity="0.2"/>
<path d="M5.86621 14C5.9778 14.2029 6.14184 14.3722 6.34121 14.4901C6.54057 14.608 6.76793 14.6702 6.99954 14.6702C7.23116 14.6702 7.45852 14.608 7.65788 14.4901C7.85725 14.3722 8.02129 14.2029 8.13288 14M3 5.33331C3 4.27245 3.42143 3.25503 4.17157 2.50489C4.92172 1.75474 5.93913 1.33331 7 1.33331C8.06087 1.33331 9.07828 1.75474 9.82843 2.50489C10.5786 3.25503 11 4.27245 11 5.33331C11 9.99998 13 11.3333 13 11.3333H1C1 11.3333 3 9.99998 3 5.33331Z" stroke="black" stroke-width="1.33333" stroke-linecap="round" stroke-linejoin="round"/>
</svg>
