<svg width="22" height="22" viewBox="0 0 22 22" fill="none" xmlns="http://www.w3.org/2000/svg">
<path d="M17 10.2463C16.6078 9.44613 15.5481 8.2708 13.3703 8.32081C13.3703 8.32081 11.6431 8.24579 9.69065 8.24579C7.7382 8.24579 6.82413 8.29151 5.26004 8.32081C4.25877 8.2958 2.35634 8.52086 1.48023 10.5964C0.904496 12.3469 0.879456 16.0229 1.22991 17.8734C1.30501 18.8236 1.80564 20.149 3.35762 20.8492C4.30883 21.3493 5.83578 21.1493 6.98725 21.2493M4.9847 7.44557C4.93463 5.06992 4.8345 3.19441 7.58801 1.64399C8.51419 1.26889 9.89095 0.943798 11.5931 1.74402C13.3703 2.81931 13.5917 3.95729 13.7458 4.2447C14.1713 5.37001 13.9461 6.97044 13.9961 7.62062M14.225 17.0397L16.2156 15.097M16.2156 15.097L17.6264 13.7394C17.95 13.4636 18.6 12.818 19.373 13.5577L21 15.097M16.2156 15.097L17.825 16.6423M14.5 18.9842C14.5 20.2282 13.4911 21.2146 12.2552 21.2146C11.0194 21.2146 10 20.2282 10 18.9842C10 17.7402 11.0194 16.7405 12.2552 16.7405C13.4911 16.7405 14.5 17.7402 14.5 18.9842Z" stroke="white" stroke-width="1.5" stroke-linecap="round"/>
</svg>
