<svg width="22" height="23" viewBox="0 0 22 23" fill="none" xmlns="http://www.w3.org/2000/svg">
<path d="M18.1658 1C18.1658 0.530558 17.7852 0.15 17.3158 0.15C16.8464 0.15 16.4658 0.530558 16.4658 1H18.1658ZM16.4658 3.1C16.4658 3.56944 16.8464 3.95 17.3158 3.95C17.7852 3.95 18.1658 3.56944 18.1658 3.1H16.4658ZM5.53421 1C5.53421 0.530558 5.15365 0.15 4.68421 0.15C4.21477 0.15 3.83421 0.530558 3.83421 1H5.53421ZM3.83421 3.1C3.83421 3.56944 4.21477 3.95 4.68421 3.95C5.15365 3.95 5.53421 3.56944 5.53421 3.1H3.83421ZM8.04474 16.75C8.04474 17.2194 8.4253 17.6 8.89474 17.6C9.36418 17.6 9.74474 17.2194 9.74474 16.75L8.04474 16.75ZM8.89473 12.9146L8.04473 12.9146L8.04473 12.9146L8.89473 12.9146ZM7.84211 11.7C7.37266 11.7 6.99211 12.0806 6.99211 12.55C6.99211 13.0194 7.37266 13.4 7.84211 13.4V11.7ZM11.9188 16.4537C11.7551 16.8937 11.9792 17.383 12.4192 17.5467C12.8591 17.7103 13.3485 17.4863 13.5122 17.0463L11.9188 16.4537ZM14.1413 12.9167L14.9379 13.213L14.938 13.2128L14.1413 12.9167ZM12.0526 11.7C11.5832 11.7 11.2026 12.0806 11.2026 12.55C11.2026 13.0194 11.5832 13.4 12.0526 13.4V11.7ZM19.682 20.5787L20.3053 21.1567L20.3053 21.1567L19.682 20.5787ZM2.31802 20.5787L1.69475 21.1567L1.69477 21.1567L2.31802 20.5787ZM4.68421 6.45C4.21477 6.45 3.83421 6.83056 3.83421 7.3C3.83421 7.76944 4.21477 8.15 4.68421 8.15V6.45ZM17.3158 8.15C17.7852 8.15 18.1658 7.76944 18.1658 7.3C18.1658 6.83056 17.7852 6.45 17.3158 6.45V8.15ZM16.4658 1V3.1H18.1658V1H16.4658ZM3.83421 1V3.1H5.53421V1H3.83421ZM9.74474 16.75L9.74473 12.9146L8.04473 12.9146L8.04474 16.75L9.74474 16.75ZM9.74473 12.9146C9.74473 12.3475 9.31759 11.7 8.57324 11.7V13.4C8.18399 13.4 8.04473 13.0791 8.04473 12.9146H9.74473ZM8.57324 11.7H7.84211V13.4H8.57324V11.7ZM13.5122 17.0463L14.9379 13.213L13.3446 12.6203L11.9188 16.4537L13.5122 17.0463ZM14.938 13.2128C15.2385 12.4045 14.5776 11.7 13.8639 11.7V13.4C13.5546 13.4 13.1773 13.0703 13.3445 12.6205L14.938 13.2128ZM13.8639 11.7H12.0526V13.4H13.8639V11.7ZM1.85 11.7554C1.85 9.44547 1.85156 7.79242 2.00822 6.53583C2.16261 5.29752 2.45477 4.57393 2.94128 4.04929L1.69476 2.89336C0.863248 3.79004 0.496401 4.92091 0.321283 6.32551C0.148444 7.71182 0.15 9.49012 0.15 11.7554H1.85ZM2.94128 4.04929C3.41935 3.53376 4.06536 3.23109 5.18424 3.06887C6.33455 2.90209 7.85282 2.9 10 2.9V1.2C7.90453 1.2 6.24083 1.19791 4.94032 1.38646C3.60837 1.57957 2.53472 1.98757 1.69476 2.89336L2.94128 4.04929ZM10 2.9H12V1.2H10V2.9ZM12 2.9C14.1472 2.9 15.6655 2.90209 16.8158 3.06887C17.9347 3.23109 18.5807 3.53376 19.0587 4.04928L20.3053 2.89336C19.4653 1.98756 18.3917 1.57957 17.0597 1.38646C15.7592 1.19791 14.0955 1.2 12 1.2V2.9ZM19.0587 4.04928C19.5452 4.57392 19.8374 5.29751 19.9918 6.53582C20.1484 7.79242 20.15 9.44547 20.15 11.7554H21.85C21.85 9.49012 21.8516 7.71182 21.6787 6.32551C21.5036 4.92091 21.1368 3.79004 20.3053 2.89336L19.0587 4.04928ZM20.15 11.7554V12.2946H21.85V11.7554H20.15ZM20.15 12.2946C20.15 14.6045 20.1484 16.2576 19.9918 17.5142C19.8374 18.7525 19.5452 19.4761 19.0587 20.0008L20.3053 21.1567C21.1368 20.26 21.5036 19.1291 21.6787 17.7245C21.8516 16.3382 21.85 14.5599 21.85 12.2946H20.15ZM19.0587 20.0008C18.5807 20.5163 17.9347 20.8189 16.8158 20.9811C15.6655 21.1479 14.1472 21.15 12 21.15V22.85C14.0955 22.85 15.7592 22.8521 17.0597 22.6635C18.3916 22.4704 19.4653 22.0625 20.3053 21.1567L19.0587 20.0008ZM12 21.15H10V22.85H12V21.15ZM10 21.15C7.85282 21.15 6.33455 21.1479 5.18423 20.9811C4.06535 20.8189 3.41934 20.5163 2.94128 20.0007L1.69477 21.1567C2.53473 22.0625 3.60838 22.4704 4.94032 22.6635C6.24083 22.8521 7.90453 22.85 10 22.85V21.15ZM2.9413 20.0008C2.45477 19.4761 2.16261 18.7525 2.00822 17.5142C1.85156 16.2576 1.85 14.6045 1.85 12.2946H0.15C0.15 14.5599 0.148444 16.3382 0.321283 17.7245C0.496402 19.1291 0.863249 20.26 1.69475 21.1567L2.9413 20.0008ZM1.85 12.2946V11.7554H0.15V12.2946H1.85ZM4.68421 8.15H17.3158V6.45H4.68421V8.15Z" fill="white"/>
</svg>
