<svg width="22" height="20" viewBox="0 0 22 20" fill="none" xmlns="http://www.w3.org/2000/svg">
<path d="M1.81382 3.15877L2.45056 3.55508L2.45057 3.55507L1.81382 3.15877ZM2.91891 1.91554L2.45481 1.32638L2.4548 1.32638L2.91891 1.91554ZM19.0811 1.91554L19.5452 1.32638L19.5452 1.32637L19.0811 1.91554ZM20.1862 3.15877L20.8229 2.76246L20.8229 2.76245L20.1862 3.15877ZM20.1862 16.8412L19.5495 16.4449L19.5494 16.4449L20.1862 16.8412ZM19.0811 18.0845L19.5452 18.6737L19.5453 18.6736L19.0811 18.0845ZM2.91891 18.0845L2.45475 18.6736L2.45482 18.6737L2.91891 18.0845ZM1.81382 16.8412L2.45058 16.4449L2.45055 16.4449L1.81382 16.8412ZM4 4.25C3.58579 4.25 3.25 4.58579 3.25 5C3.25 5.41421 3.58579 5.75 4 5.75V4.25ZM5 5.75C5.41421 5.75 5.75 5.41421 5.75 5C5.75 4.58579 5.41421 4.25 5 4.25V5.75ZM4 7.25C3.58579 7.25 3.25 7.58579 3.25 8C3.25 8.41421 3.58579 8.75 4 8.75V7.25ZM5 8.75C5.41421 8.75 5.75 8.41421 5.75 8C5.75 7.58579 5.41421 7.25 5 7.25V8.75ZM1.75 10C1.75 8.14099 1.75077 6.79884 1.84846 5.75625C1.94529 4.72275 2.13177 4.06727 2.45056 3.55508L1.17708 2.76246C0.682054 3.5578 0.461619 4.47837 0.354998 5.61632C0.249229 6.74518 0.25 8.16988 0.25 10H1.75ZM2.45057 3.55507C2.70761 3.14208 3.02407 2.78746 3.38302 2.5047L2.4548 1.32638C1.95375 1.72108 1.52219 2.20796 1.17707 2.76247L2.45057 3.55507ZM3.38301 2.5047C3.8142 2.16504 4.36203 1.96498 5.25391 1.85922C6.16462 1.75123 7.34218 1.75 9 1.75V0.25C7.37859 0.25 6.09672 0.248771 5.07727 0.369661C4.03897 0.492785 3.18587 0.750498 2.45481 1.32638L3.38301 2.5047ZM9 1.75H13V0.25H9V1.75ZM13 1.75C14.6578 1.75 15.8354 1.75123 16.7461 1.85922C17.6379 1.96498 18.1858 2.16504 18.617 2.50471L19.5452 1.32637C18.8141 0.750498 17.961 0.492785 16.9227 0.369661C15.9033 0.248771 14.6214 0.25 13 0.25V1.75ZM18.617 2.5047C18.9759 2.78745 19.2924 3.14208 19.5495 3.55509L20.8229 2.76245C20.4778 2.20796 20.0463 1.72109 19.5452 1.32638L18.617 2.5047ZM19.5495 3.55508C19.8682 4.06727 20.0547 4.72275 20.1515 5.75625C20.2492 6.79884 20.25 8.14099 20.25 10H21.75C21.75 8.16988 21.7508 6.74518 21.645 5.61632C21.5384 4.47837 21.318 3.5578 20.8229 2.76246L19.5495 3.55508ZM20.25 10C20.25 11.859 20.2492 13.2011 20.1515 14.2437C20.0547 15.2772 19.8682 15.9327 19.5495 16.4449L20.8229 17.2375C21.318 16.4422 21.5384 15.5216 21.645 14.3837C21.7508 13.2548 21.75 11.8301 21.75 10H20.25ZM19.5494 16.4449C19.2924 16.8579 18.9759 17.2125 18.6169 17.4954L19.5453 18.6736C20.0463 18.2789 20.4778 17.7921 20.823 17.2375L19.5494 16.4449ZM18.617 17.4953C18.1858 17.835 17.6379 18.035 16.7461 18.1408C15.8354 18.2488 14.6578 18.25 13 18.25V19.75C14.6214 19.75 15.9032 19.7512 16.9227 19.6303C17.961 19.5072 18.8141 19.2495 19.5452 18.6737L18.617 17.4953ZM13 18.25H9V19.75H13V18.25ZM9 18.25C7.34218 18.25 6.16462 18.2488 5.2539 18.1408C4.36203 18.035 3.81419 17.835 3.383 17.4953L2.45482 18.6737C3.18588 19.2495 4.03897 19.5072 5.07727 19.6303C6.09673 19.7512 7.37859 19.75 9 19.75V18.25ZM3.38307 17.4954C3.02406 17.2125 2.7076 16.8579 2.45058 16.4449L1.17706 17.2375C1.5222 17.7921 1.95376 18.2789 2.45475 18.6736L3.38307 17.4954ZM2.45055 16.4449C2.13177 15.9327 1.94529 15.2772 1.84846 14.2437C1.75077 13.2011 1.75 11.859 1.75 10H0.25C0.25 11.8301 0.249229 13.2548 0.354998 14.3837C0.461618 15.5216 0.682053 16.4422 1.17709 17.2375L2.45055 16.4449ZM7.75 1V19H9.25V1H7.75ZM4 5.75H5V4.25H4V5.75ZM4 8.75H5V7.25H4V8.75Z" fill="white"/>
</svg>
