<svg width="18" height="23" viewBox="0 0 18 23" fill="none" xmlns="http://www.w3.org/2000/svg">
<path d="M15.7339 16.2337C15.5357 15.9511 15.146 15.8827 14.8633 16.0809C14.5807 16.2791 14.5123 16.6688 14.7105 16.9514L15.7339 16.2337ZM16.8865 20.4925L17.4529 20.7568L17.453 20.7565L16.8865 20.4925ZM16.7469 20.7393L17.2653 21.0883L17.2655 21.0881L16.7469 20.7393ZM1.25311 20.7393L1.77154 20.3902L1.77153 20.3902L1.25311 20.7393ZM1.11355 20.4925L1.68006 20.2285L1.68002 20.2284L1.11355 20.4925ZM3.28949 16.9514C3.48768 16.6688 3.41924 16.2791 3.13664 16.0809C2.85403 15.8827 2.46426 15.9511 2.26607 16.2337L3.28949 16.9514ZM10.2574 17.0862L10.6909 17.5364L10.691 17.5363L10.2574 17.0862ZM7.7429 17.0862L7.30797 17.535L7.30938 17.5364L7.7429 17.0862ZM2.53371 5.89632L3.1108 6.13631L3.1108 6.13631L2.53371 5.89632ZM15.4666 5.89632L14.8895 6.13631L14.8895 6.13631L15.4666 5.89632ZM10.875 8.59259C10.875 9.62811 10.0355 10.4676 9 10.4676V11.7176C10.7259 11.7176 12.125 10.3185 12.125 8.59259H10.875ZM9 10.4676C7.96448 10.4676 7.125 9.62811 7.125 8.59259H5.875C5.875 10.3185 7.27412 11.7176 9 11.7176V10.4676ZM7.125 8.59259C7.125 7.55706 7.96448 6.71759 9 6.71759V5.46759C7.27412 5.46759 5.875 6.8667 5.875 8.59259H7.125ZM9 6.71759C10.0355 6.71759 10.875 7.55706 10.875 8.59259H12.125C12.125 6.8667 10.7259 5.46759 9 5.46759V6.71759ZM14.7105 16.9514C15.4153 17.9565 15.8966 18.6727 16.1607 19.2345C16.422 19.7904 16.4022 20.0521 16.32 20.2285L17.453 20.7565C17.7681 20.0805 17.6134 19.3865 17.2919 18.7027C16.9731 18.0247 16.4236 17.2171 15.7339 16.2337L14.7105 16.9514ZM16.3201 20.2282C16.2941 20.284 16.2634 20.3382 16.2283 20.3905L17.2655 21.0881C17.3364 20.9828 17.3991 20.872 17.4529 20.7568L16.3201 20.2282ZM16.2285 20.3902C16.0984 20.5834 15.8214 20.7651 15.0494 20.8662C14.2855 20.9663 13.2213 20.9676 11.7178 20.9676V22.2176C13.184 22.2176 14.3471 22.2189 15.2117 22.1056C16.0682 21.9934 16.8209 21.7485 17.2653 21.0883L16.2285 20.3902ZM11.7178 20.9676H6.28223V22.2176H11.7178V20.9676ZM6.28223 20.9676C4.77875 20.9676 3.71454 20.9663 2.95065 20.8662C2.17859 20.7651 1.90163 20.5834 1.77154 20.3902L0.734673 21.0884C1.17913 21.7485 1.93187 21.9934 2.7883 22.1056C3.6529 22.2189 4.81598 22.2176 6.28223 22.2176V20.9676ZM1.77153 20.3902C1.73655 20.3382 1.706 20.2842 1.68006 20.2285L0.547031 20.7565C0.600772 20.8718 0.66355 20.9827 0.734681 21.0884L1.77153 20.3902ZM1.68002 20.2284C1.5978 20.052 1.578 19.7903 1.83932 19.2345C2.10341 18.6727 2.58462 17.9565 3.28949 16.9514L2.26607 16.2337C1.57641 17.2171 1.02683 18.0247 0.708095 18.7027C0.386594 19.3865 0.231933 20.0805 0.547075 20.7566L1.68002 20.2284ZM9.82388 16.636C9.60326 16.8484 9.30793 16.9676 9.0002 16.9676V18.2176C9.63068 18.2176 10.2369 17.9735 10.6909 17.5364L9.82388 16.636ZM9.0002 16.9676C8.69236 16.9676 8.39703 16.8484 8.17642 16.636L7.30938 17.5364C7.76337 17.9736 8.36964 18.2176 9.0002 18.2176V16.9676ZM8.17783 16.6373C6.59583 15.1044 4.86688 13.5892 3.74878 11.851C2.661 10.1599 2.1996 8.32738 3.1108 6.13631L1.95662 5.65633C0.849295 8.31903 1.44819 10.585 2.69749 12.5272C3.91647 14.4223 5.80137 16.0752 7.30797 17.535L8.17783 16.6373ZM3.1108 6.13631C4.10293 3.75058 6.49133 2.21759 9.0002 2.21759V0.96759C5.99855 0.96759 3.14727 2.79324 1.95662 5.65633L3.1108 6.13631ZM9.0002 2.21759C11.509 2.21759 13.8974 3.75058 14.8895 6.13631L16.0437 5.65633C14.853 2.79326 12.0018 0.96759 9.0002 0.96759V2.21759ZM14.8895 6.13631C15.7995 8.32456 15.3398 10.1599 14.2531 11.8531C13.1368 13.5924 11.4079 15.1102 9.8238 16.6361L10.691 17.5363C12.2031 16.0797 14.0868 14.4264 15.3051 12.5283C16.5529 10.5841 17.1497 8.31575 16.0437 5.65633L14.8895 6.13631Z" fill="white"/>
</svg>
