<svg width="22" height="20" viewBox="0 0 22 20" fill="none" xmlns="http://www.w3.org/2000/svg">
<path d="M1 3.90491L7.91302 7.82188C10.4616 9.26591 11.5384 9.26591 14.087 7.82188L21 3.90491M1.01577 11.3805C1.08114 14.4461 1.11383 15.9788 2.24496 17.1143C3.37608 18.2497 4.95033 18.2892 8.09883 18.3683C10.0393 18.4171 11.9607 18.4171 13.9012 18.3683C17.0497 18.2892 18.6239 18.2497 19.7551 17.1143C20.8862 15.9788 20.9189 14.4461 20.9842 11.3805C21.0053 10.3948 21.0053 9.41501 20.9842 8.42931C20.9189 5.36377 20.8862 3.831 19.7551 2.69557C18.6239 1.56014 17.0497 1.52059 13.9012 1.44148C11.9607 1.39272 10.0393 1.39272 8.09882 1.44147C4.95033 1.52057 3.37608 1.56012 2.24495 2.69556C1.11382 3.83099 1.08114 5.36376 1.01576 8.42931C0.99474 9.41501 0.99475 10.3948 1.01577 11.3805Z" stroke="white" stroke-width="1.5" stroke-linejoin="round"/>
</svg>
