<svg width="22" height="22" viewBox="0 0 22 22" fill="none" xmlns="http://www.w3.org/2000/svg">
<path d="M3.41905 20.5837L3.79813 19.8397L3.79813 19.8397L3.41905 20.5837ZM1.41606 18.5808L2.16005 18.2017L2.16005 18.2017L1.41606 18.5808ZM16.917 18.5808L16.173 18.2017L16.173 18.2017L16.917 18.5808ZM14.914 20.5837L14.5349 19.8397L14.5349 19.8397L14.914 20.5837ZM14.914 5.08285L14.5349 5.82684L14.5349 5.82684L14.914 5.08285ZM16.917 7.08584L16.173 7.46492L16.173 7.46492L16.917 7.08584ZM3.41905 5.08285L3.79813 5.82684L3.79813 5.82684L3.41905 5.08285ZM1.41606 7.08584L2.16005 7.46492L2.16005 7.46492L1.41606 7.08584ZM17.4165 16.5816C16.9553 16.5816 16.5815 16.9555 16.5815 17.4166C16.5815 17.8778 16.9553 18.2516 17.4165 18.2516V16.5816ZM3.74817 4.58329C3.74817 5.04445 4.12201 5.41829 4.58317 5.41829C5.04433 5.41829 5.41817 5.04445 5.41817 4.58329H3.74817ZM4.92244 14.9801C4.58931 15.299 4.57776 15.8276 4.89665 16.1607C5.21554 16.4938 5.74411 16.5054 6.07724 16.1865L4.92244 14.9801ZM12.2558 16.1865C12.5889 16.5054 13.1175 16.4938 13.4364 16.1607C13.7552 15.8276 13.7437 15.299 13.4106 14.9801L12.2558 16.1865ZM8.24984 5.41829H10.0832V3.74829H8.24984V5.41829ZM16.5815 11.9166V13.75H18.2515V11.9166H16.5815ZM10.0832 20.2483H8.24984V21.9183H10.0832V20.2483ZM1.7515 13.75V11.9166H0.0815039V13.75H1.7515ZM8.24984 20.2483C6.95261 20.2483 6.0299 20.2476 5.30751 20.1886C4.59487 20.1304 4.15101 20.0196 3.79813 19.8397L3.03997 21.3277C3.66751 21.6475 4.3556 21.7864 5.17152 21.8531C5.97769 21.9189 6.98016 21.9183 8.24984 21.9183V20.2483ZM0.0815039 13.75C0.0815039 15.0196 0.0808545 16.0221 0.146721 16.8283C0.213384 17.6442 0.352317 18.3323 0.672067 18.9598L2.16005 18.2017C1.98024 17.8488 1.8694 17.4049 1.81117 16.6923C1.75215 15.9699 1.7515 15.0472 1.7515 13.75H0.0815039ZM3.79813 19.8397C3.09283 19.4804 2.51941 18.907 2.16005 18.2017L0.672067 18.9598C1.19154 19.9794 2.02044 20.8083 3.03997 21.3277L3.79813 19.8397ZM16.5815 13.75C16.5815 15.0472 16.5809 15.9699 16.5218 16.6923C16.4636 17.4049 16.3528 17.8488 16.173 18.2017L17.6609 18.9598C17.9807 18.3323 18.1196 17.6442 18.1863 16.8283C18.2522 16.0221 18.2515 15.0196 18.2515 13.75H16.5815ZM10.0832 21.9183C11.3528 21.9183 12.3553 21.9189 13.1615 21.8531C13.9774 21.7864 14.6655 21.6475 15.293 21.3277L14.5349 19.8397C14.182 20.0196 13.7381 20.1304 13.0255 20.1886C12.3031 20.2476 11.3804 20.2483 10.0832 20.2483V21.9183ZM16.173 18.2017C15.8136 18.907 15.2402 19.4804 14.5349 19.8397L15.293 21.3277C16.3126 20.8083 17.1415 19.9794 17.6609 18.9598L16.173 18.2017ZM10.0832 5.41829C11.3804 5.41829 12.3031 5.41894 13.0255 5.47796C13.7381 5.53619 14.182 5.64703 14.5349 5.82684L15.293 4.33886C14.6655 4.01911 13.9774 3.88017 13.1615 3.81351C12.3553 3.74764 11.3528 3.74829 10.0832 3.74829V5.41829ZM18.2515 11.9166C18.2515 10.647 18.2522 9.64448 18.1863 8.83831C18.1196 8.02239 17.9807 7.3343 17.6609 6.70675L16.173 7.46492C16.3528 7.8178 16.4636 8.26165 16.5218 8.9743C16.5809 9.69669 16.5815 10.6194 16.5815 11.9166H18.2515ZM14.5349 5.82684C15.2402 6.1862 15.8136 6.75962 16.173 7.46492L17.6609 6.70675C17.1415 5.68723 16.3126 4.85833 15.293 4.33886L14.5349 5.82684ZM8.24984 3.74829C6.98016 3.74829 5.97769 3.74764 5.17152 3.81351C4.3556 3.88017 3.66751 4.01911 3.03997 4.33886L3.79813 5.82684C4.15101 5.64703 4.59487 5.53619 5.30751 5.47796C6.0299 5.41894 6.95261 5.41829 8.24984 5.41829V3.74829ZM1.7515 11.9166C1.7515 10.6194 1.75215 9.69669 1.81117 8.9743C1.8694 8.26165 1.98024 7.8178 2.16005 7.46492L0.672067 6.70675C0.352317 7.3343 0.213384 8.02239 0.146721 8.83831C0.0808545 9.64448 0.0815039 10.647 0.0815039 11.9166H1.7515ZM3.03997 4.33886C2.02044 4.85833 1.19154 5.68723 0.672067 6.70675L2.16005 7.46492C2.51941 6.75962 3.09284 6.1862 3.79813 5.82684L3.03997 4.33886ZM8.24984 1.75163H16.4998V0.081626H8.24984V1.75163ZM20.2482 5.49996V13.75H21.9182V5.49996H20.2482ZM20.2482 13.75C20.2482 15.3138 18.9804 16.5816 17.4165 16.5816V18.2516C19.9027 18.2516 21.9182 16.2362 21.9182 13.75H20.2482ZM16.4998 1.75163C18.57 1.75163 20.2482 3.42981 20.2482 5.49996H21.9182C21.9182 2.5075 19.4923 0.081626 16.4998 0.081626V1.75163ZM8.24984 0.081626C5.76364 0.081626 3.74817 2.09709 3.74817 4.58329H5.41817C5.41817 3.01941 6.68595 1.75163 8.24984 1.75163V0.081626ZM6.07724 16.1865C7.7794 14.5571 10.5536 14.5571 12.2558 16.1865L13.4106 14.9801C11.0626 12.7325 7.27037 12.7325 4.92244 14.9801L6.07724 16.1865ZM10.7909 11.4921C10.7909 12.2813 10.1119 12.9826 9.19659 12.9826V14.6526C10.9647 14.6526 12.4609 13.2716 12.4609 11.4921H10.7909ZM9.19659 12.9826C8.28131 12.9826 7.60226 12.2813 7.60226 11.4921H5.93226C5.93226 13.2716 7.4285 14.6526 9.19659 14.6526V12.9826ZM7.60226 11.4921C7.60226 10.7029 8.28131 10.0016 9.19659 10.0016V8.33163C7.4285 8.33163 5.93226 9.71262 5.93226 11.4921H7.60226ZM9.19659 10.0016C10.1119 10.0016 10.7909 10.7029 10.7909 11.4921H12.4609C12.4609 9.71262 10.9647 8.33163 9.19659 8.33163V10.0016Z" fill="white"/>
</svg>
