<svg width="18" height="20" viewBox="0 0 18 20" fill="none" xmlns="http://www.w3.org/2000/svg">
<path d="M2.15837 9.491C2.08489 10.887 2.16936 12.373 0.92213 13.3084C0.34164 13.7438 0 14.427 0 15.1527C0 16.1508 0.7818 17 1.8 17H16.2C17.2182 17 18 16.1508 18 15.1527C18 14.427 17.6584 13.7438 17.0779 13.3084C15.8306 12.373 15.9151 10.887 15.8416 9.491C15.6501 5.85223 12.6438 3 9 3C5.35617 3 2.34988 5.85222 2.15837 9.491Z" fill="white"/>
<path d="M7.5 1.125C7.5 1.95343 8.1716 3 9 3C9.8284 3 10.5 1.95343 10.5 1.125C10.5 0.29657 9.8284 0 9 0C8.1716 0 7.5 0.29657 7.5 1.125Z" fill="white"/>
<path d="M12 17C12 18.6569 10.6569 20 9 20C7.3431 20 6 18.6569 6 17" fill="white"/>
</svg>
