<svg width="26" height="26" viewBox="0 0 26 26" fill="none" xmlns="http://www.w3.org/2000/svg">
<path d="M5.76503 10.4898C8.37985 5.86295 9.68725 3.54951 11.4813 2.95401C12.4683 2.6264 13.5314 2.6264 14.5184 2.95401C16.3125 3.54951 17.6198 5.86295 20.2347 10.4898C22.8495 15.1166 24.1569 17.4301 23.7647 19.3151C23.5489 20.3521 23.0173 21.2927 22.2461 22.0022C20.8443 23.2917 18.2295 23.2917 12.9998 23.2917C7.77021 23.2917 5.15539 23.2917 3.75355 22.0022C2.98234 21.2927 2.45076 20.3521 2.235 19.3151C1.8428 17.4301 3.15021 15.1166 5.76503 10.4898Z" fill="#E79E12" stroke="#331915" stroke-width="1.5"/>
<path d="M12.9912 17.3333H13.0017" stroke="#141B34" stroke-width="2" stroke-linecap="round" stroke-linejoin="round"/>
<path d="M13 14.0833V9.74997" stroke="#141B34" stroke-width="2" stroke-linecap="round" stroke-linejoin="round"/>
</svg>
