<svg width="20" height="22" viewBox="0 0 20 22" fill="none" xmlns="http://www.w3.org/2000/svg">
<path d="M6.58579 14.5858L7.11612 15.1161L7.11613 15.1161L6.58579 14.5858ZM8 5.25C7.58579 5.25 7.25 5.58579 7.25 6C7.25 6.41421 7.58579 6.75 8 6.75V5.25ZM12 6.75C12.4142 6.75 12.75 6.41421 12.75 6C12.75 5.58579 12.4142 5.25 12 5.25V6.75ZM2.38674 2.54394L1.84475 2.02553L1.84475 2.02553L2.38674 2.54394ZM2.54394 2.38674L2.02553 1.84475L2.02553 1.84475L2.54394 2.38674ZM12.9628 1.18936L13.2251 0.486705L13.225 0.486702L12.9628 1.18936ZM14.6452 2.37099L14.1651 2.94715L14.1651 2.94715L14.6452 2.37099ZM16.8411 4.20092L17.3212 3.62476L17.3212 3.62476L16.8411 4.20092ZM18.7168 6.13266L19.396 5.81457L19.396 5.81448L18.7168 6.13266ZM18.0451 18.9389L17.4383 18.4981L17.4383 18.4981L18.0451 18.9389ZM16.9389 20.0451L16.4981 19.4383L16.4981 19.4383L16.9389 20.0451ZM3.06107 20.0451L2.62023 20.6519L2.62024 20.6519L3.06107 20.0451ZM1.95491 18.9389L2.56168 18.4981L2.56167 18.4981L1.95491 18.9389ZM6.75 21V18H5.25V21H6.75ZM6.75 18C6.75 17.036 6.75159 16.3884 6.81654 15.9054C6.87858 15.444 6.9858 15.2465 7.11612 15.1161L6.05546 14.0555C5.59999 14.5109 5.41432 15.0777 5.32991 15.7055C5.24841 16.3118 5.25 17.0784 5.25 18H6.75ZM7.11613 15.1161C7.24644 14.9858 7.44394 14.8786 7.9054 14.8165C8.38844 14.7516 9.036 14.75 10 14.75V13.25C9.0784 13.25 8.31175 13.2484 7.70552 13.3299C7.07773 13.4143 6.51092 13.6 6.05545 14.0555L7.11613 15.1161ZM10 14.75C10.964 14.75 11.6116 14.7516 12.0946 14.8165C12.556 14.8786 12.7535 14.9858 12.8839 15.1161L13.9445 14.0555C13.4891 13.6 12.9223 13.4143 12.2945 13.3299C11.6882 13.2484 10.9216 13.25 10 13.25V14.75ZM12.8839 15.1161C13.0142 15.2465 13.1214 15.444 13.1835 15.9054C13.2484 16.3884 13.25 17.036 13.25 18H14.75C14.75 17.0784 14.7516 16.3118 14.6701 15.7055C14.5857 15.0777 14.4 14.5109 13.9445 14.0555L12.8839 15.1161ZM13.25 18V21H14.75V18H13.25ZM8 6.75H12V5.25H8V6.75ZM1.75 10.8584C1.75 8.54964 1.75151 6.89136 1.91701 5.62596C2.07985 4.38091 2.38985 3.62574 2.92873 3.06235L1.84475 2.02553C0.996891 2.91196 0.613519 4.02581 0.429676 5.43143C0.248494 6.81671 0.25 8.59075 0.25 10.8584H1.75ZM2.92873 3.06235C2.97228 3.01682 3.01682 2.97227 3.06235 2.92873L2.02553 1.84475C1.96394 1.90367 1.90367 1.96394 1.84475 2.02553L2.92873 3.06235ZM3.06235 2.92873C3.62574 2.38985 4.38091 2.07985 5.62596 1.91701C6.89136 1.75151 8.54964 1.75 10.8584 1.75V0.25C8.59075 0.25 6.81671 0.248494 5.43143 0.429676C4.02581 0.613519 2.91196 0.99689 2.02553 1.84475L3.06235 2.92873ZM10.8584 1.75C11.9913 1.75 12.358 1.76416 12.7006 1.89202L13.225 0.486702C12.573 0.243362 11.8947 0.25 10.8584 0.25V1.75ZM12.7005 1.89201C13.0321 2.01574 13.3234 2.24574 14.1651 2.94715L15.1253 1.79483C14.3624 1.15904 13.8513 0.720458 13.2251 0.486705L12.7005 1.89201ZM14.1651 2.94715L16.361 4.77708L17.3212 3.62476L15.1253 1.79483L14.1651 2.94715ZM16.361 4.77708C17.4763 5.70659 17.8417 6.03263 18.0376 6.45084L19.396 5.81448C19.0253 5.02327 18.3291 4.46463 17.3212 3.62476L16.361 4.77708ZM18.0376 6.45075C18.2334 6.86892 18.25 7.35831 18.25 8.81025H19.75C19.75 7.49835 19.7666 6.60582 19.396 5.81457L18.0376 6.45075ZM18.25 8.81025V12H19.75V8.81025H18.25ZM18.25 12C18.25 13.8916 18.249 15.25 18.135 16.3019C18.0226 17.3399 17.8074 17.9901 17.4383 18.4981L18.6519 19.3797C19.2377 18.5734 19.5 17.629 19.6263 16.4635C19.751 15.312 19.75 13.8581 19.75 12H18.25ZM17.4383 18.4981C17.1762 18.8589 16.8589 19.1762 16.4981 19.4383L17.3797 20.6519C17.8679 20.2972 18.2972 19.8679 18.6519 19.3797L17.4383 18.4981ZM16.4981 19.4383C15.9901 19.8074 15.3399 20.0226 14.3019 20.135C13.25 20.249 11.8916 20.25 10 20.25V21.75C11.8581 21.75 13.312 21.751 14.4635 21.6263C15.629 21.5 16.5734 21.2377 17.3797 20.6519L16.4981 19.4383ZM10 20.25C8.10843 20.25 6.74999 20.249 5.69804 20.135C4.66013 20.0226 4.00991 19.8074 3.5019 19.4383L2.62024 20.6519C3.42656 21.2377 4.37094 21.5 5.53648 21.6263C6.68798 21.751 8.14184 21.75 10 21.75V20.25ZM3.50191 19.4383C3.14112 19.1762 2.82382 18.8589 2.56168 18.4981L1.34814 19.3797C1.7028 19.8679 2.13208 20.2972 2.62023 20.6519L3.50191 19.4383ZM2.56167 18.4981C2.19259 17.9901 1.97745 17.3399 1.865 16.3019C1.75103 15.25 1.75 13.8916 1.75 12H0.25C0.25 13.8581 0.248971 15.312 0.373727 16.4635C0.500004 17.629 0.76232 18.5734 1.34815 19.3797L2.56167 18.4981ZM1.75 12V10.8584H0.25V12H1.75Z" fill="white"/>
</svg>
