<svg width="47" height="54" viewBox="0 0 47 54" fill="none" xmlns="http://www.w3.org/2000/svg">
<path d="M28.5978 42.3669C29.1496 43.6325 30.6229 44.2113 31.8886 43.6595C33.1542 43.1078 33.733 41.6344 33.1812 40.3688L28.5978 42.3669ZM28.7825 36.5345L31.0742 35.5354L31.0741 35.5353L28.7825 36.5345ZM24.9708 27.792L22.6787 28.7901L22.6792 28.7911L24.9708 27.792ZM22.0582 27.792L24.3499 28.7911L24.3503 28.7901L22.0582 27.792ZM18.2466 36.5345L15.9549 35.5353L15.9549 35.5354L18.2466 36.5345ZM13.8477 40.3687C13.296 41.6344 13.8747 43.1077 15.1403 43.6595C16.406 44.2113 17.8793 43.6326 18.4311 42.3669L13.8477 40.3687ZM39.4718 5.33331C40.8525 5.33331 41.9718 4.21402 41.9718 2.83331C41.9718 1.4526 40.8525 0.333311 39.4718 0.333313L39.4718 5.33331ZM9.50638 2.83336L9.50638 5.33336L9.50638 5.33336L9.50638 2.83336ZM6.04758 3.72221L7.51048 5.7495L7.5105 5.74949L6.04758 3.72221ZM5.3763 15.5706L7.08241 13.7432L7.08238 13.7432L5.3763 15.5706ZM2.70151 41.6723L0.201522 41.6789L0.201692 41.7434L0.205192 41.8079L2.70151 41.6723ZM5.11918 10.4788C5.11553 9.09809 3.99329 7.98176 2.61258 7.98541C1.23188 7.98905 0.115548 9.11129 0.119193 10.492L5.11918 10.4788ZM12.4519 7.45115C11.0712 7.45115 9.95192 8.57044 9.95192 9.95115C9.95192 11.3319 11.0712 12.4512 12.4519 12.4512V7.45115ZM34.5354 17.2012C34.5354 18.5819 35.6546 19.7012 37.0354 19.7012C38.4161 19.7012 39.5354 18.5819 39.5354 17.2012H34.5354ZM33.1812 40.3688L31.0742 35.5354L26.4908 37.5335L28.5978 42.3669L33.1812 40.3688ZM31.0741 35.5353L27.2625 26.7928L22.6792 28.7911L26.4908 37.5336L31.0741 35.5353ZM27.2629 26.7938C26.5991 25.2693 25.0879 24.3678 23.5145 24.3678V29.3678C23.2165 29.3678 22.8554 29.1957 22.6787 28.7901L27.2629 26.7938ZM23.5145 24.3678C21.9412 24.3678 20.43 25.2693 19.7661 26.7938L24.3503 28.7901C24.1737 29.1957 23.8125 29.3678 23.5145 29.3678V24.3678ZM19.7665 26.7928L15.9549 35.5353L20.5382 37.5336L24.3499 28.7911L19.7665 26.7928ZM28.7825 34.0345H18.2466V39.0345H28.7825V34.0345ZM18.4311 42.3669L20.5382 37.5336L15.9549 35.5354L13.8477 40.3687L18.4311 42.3669ZM39.4718 0.333313L9.50637 0.333361L9.50638 5.33336L39.4718 5.33331L39.4718 0.333313ZM9.50638 0.333361C8.11858 0.333361 6.21797 0.516299 4.58465 1.69493L7.5105 5.74949C7.85226 5.50287 8.45079 5.33336 9.50638 5.33336V0.333361ZM4.58467 1.69492C2.61081 3.11927 0.775759 5.46538 0.251023 8.33846C-0.303333 11.3737 0.678606 14.6049 3.67022 17.398L7.08238 13.7432C5.20097 11.9867 4.95293 10.4235 5.16966 9.23679C5.41601 7.88795 6.35312 6.58466 7.51048 5.7495L4.58467 1.69492ZM3.6702 17.3979C5.67586 19.2705 8.31145 19.8111 10.537 19.8111V14.8111C9.00259 14.8111 7.81322 14.4256 7.08241 13.7432L3.6702 17.3979ZM10.537 19.8111H38.947V14.8111H10.537V19.8111ZM38.947 19.8111C39.8903 19.8111 40.528 19.9127 40.9478 20.2132C41.1978 20.3921 41.8959 21.0169 41.8959 23.441H46.8959C46.8959 20.0096 45.8448 17.5695 43.858 16.1474C42.0411 14.8468 39.9543 14.8111 38.947 14.8111V19.8111ZM41.8959 23.441V41.4545H46.8959V23.441H41.8959ZM41.8959 41.4545C41.8959 45.41 38.6432 48.6666 34.5689 48.6666V53.6666C41.3491 53.6666 46.8959 48.2267 46.8959 41.4545H41.8959ZM34.5689 48.6666H12.3698V53.6666H34.5689V48.6666ZM12.3698 48.6666C10.2587 48.6666 8.56218 47.9437 7.36551 46.7778C6.16525 45.6084 5.32352 43.8511 5.19783 41.5367L0.205192 41.8079C0.390727 45.2242 1.67457 48.214 3.87635 50.3591C6.08173 52.5077 9.0638 53.6666 12.3698 53.6666V48.6666ZM5.2015 41.6657L5.11918 10.4788L0.119193 10.492L0.201522 41.6789L5.2015 41.6657ZM12.4519 12.4512H33.3479V7.45115H12.4519V12.4512ZM33.3479 12.4512C34.0441 12.4512 34.5354 12.995 34.5354 13.5762H39.5354C39.5354 10.1533 36.7246 7.45115 33.3479 7.45115V12.4512ZM34.5354 13.5762V17.2012H39.5354V13.5762H34.5354Z" fill="url(#paint0_linear_500_424)"/>
<defs>
<linearGradient id="paint0_linear_500_424" x1="21.1186" y1="7.5" x2="21.1186" y2="60.5" gradientUnits="userSpaceOnUse">
<stop stop-color="#73C64A"/>
<stop offset="0.51" stop-color="#41A64D"/>
<stop offset="1" stop-color="#138950"/>
</linearGradient>
</defs>
</svg>
