<svg width="17" height="17" viewBox="0 0 17 17" fill="none" xmlns="http://www.w3.org/2000/svg">
<path d="M16.4979 6.99632H8.86738V10.1587H13.2586C12.8499 12.1682 11.139 13.3228 8.86738 13.3228C8.23176 13.3239 7.60216 13.1995 7.0147 12.9567C6.42725 12.7139 5.8935 12.3576 5.44408 11.908C4.99465 11.4586 4.63839 10.9247 4.39573 10.3372C4.15306 9.74978 4.02877 9.12013 4.02997 8.48445C4.02889 7.84891 4.15327 7.21938 4.39599 6.63198C4.63871 6.04459 4.99499 5.51088 5.4444 5.06147C5.89382 4.61205 6.42753 4.25577 7.01492 4.01306C7.60231 3.77034 8.23184 3.64595 8.86738 3.64704C10.0211 3.64704 11.0639 4.05665 11.8822 4.72651L14.2647 2.3449C12.8132 1.07941 10.9521 0.29868 8.86738 0.29868C7.79143 0.295535 6.72545 0.505144 5.73078 0.915451C4.73609 1.32576 3.83235 1.92867 3.07152 2.6895C2.31068 3.45034 1.70778 4.35408 1.29747 5.34875C0.887165 6.34343 0.677557 7.40941 0.680702 8.48537C0.677435 9.56141 0.886961 10.6275 1.29722 11.6222C1.70749 12.6169 2.31039 13.5207 3.07125 14.2816C3.83211 15.0424 4.7359 15.6453 5.73063 16.0556C6.72536 16.4658 7.7914 16.6754 8.86738 16.6721C12.9608 16.6721 16.683 13.6949 16.683 8.48537C16.683 8.00156 16.6088 7.48015 16.4979 6.99632Z" fill="#E6E6E6"/>
</svg>
