<svg width="14" height="15" viewBox="0 0 14 15" fill="none" xmlns="http://www.w3.org/2000/svg">
<path d="M12 3.33333L11.5869 10.0167C11.4813 11.7243 11.4285 12.5781 11.0005 13.1919C10.7889 13.4954 10.5165 13.7515 10.2005 13.944C9.5614 14.3333 8.706 14.3333 6.99513 14.3333C5.28208 14.3333 4.42553 14.3333 3.78603 13.9433C3.46987 13.7505 3.19733 13.4939 2.98579 13.1899C2.55792 12.5751 2.5063 11.7201 2.40307 10.0101L2 3.33333M1 3.33333H13M9.7038 3.33333L9.24873 2.39449C8.9464 1.77084 8.7952 1.45901 8.53447 1.26454C8.47667 1.2214 8.4154 1.18303 8.35133 1.1498C8.0626 1 7.71607 1 7.023 1C6.31253 1 5.95733 1 5.66379 1.15608C5.59873 1.19067 5.53665 1.2306 5.47819 1.27545C5.21443 1.4778 5.06709 1.80103 4.77241 2.44751L4.36861 3.33333M5.33333 10.6667V6.66667M8.66667 10.6667V6.66667" stroke="white" stroke-linecap="round"/>
</svg>
