<svg width="20" height="20" viewBox="0 0 20 20" fill="none" xmlns="http://www.w3.org/2000/svg">
<path d="M13.7787 6.30524V10.8052C13.7787 12.2964 14.9875 13.5052 16.4787 13.5052C17.9699 13.5052 19.1787 12.2964 19.1787 10.8052V9.90491C19.1787 4.93435 15.1493 0.904907 10.1787 0.904907C5.20815 0.904907 1.17871 4.93435 1.17871 9.90491C1.17871 14.8755 5.20815 18.9049 10.1787 18.9049C12.2052 18.9049 14.0752 18.2351 15.5796 17.1049M13.7787 9.90521C13.7787 11.8935 12.1669 13.5052 10.1787 13.5052C8.19051 13.5052 6.57871 11.8935 6.57871 9.90521C6.57871 7.91701 8.19051 6.30524 10.1787 6.30524C12.1669 6.30524 13.7787 7.91701 13.7787 9.90521Z" stroke="white" stroke-width="1.5" stroke-linecap="round"/>
</svg>
