<svg width="18" height="19" viewBox="0 0 18 19" fill="none" xmlns="http://www.w3.org/2000/svg">
<path d="M13.9939 0.586914H7.20315C6.20664 0.586914 5.30254 0.991524 4.65319 1.64836L4.63071 1.67333L1.06176 5.2348C0.412408 5.88914 0.0078125 6.78575 0.0078125 7.77977V14.5754C0.0078125 16.7833 1.79602 18.5716 4.00383 18.5716H10.7996C11.7911 18.5716 12.6903 18.1669 13.342 17.5176L16.906 13.9486L16.9309 13.9261C16.9309 13.9261 16.936 13.9212 16.9384 13.9186C17.5878 13.2693 17.9925 12.3701 17.9925 11.3762V4.58294C17.9925 2.37514 16.2042 0.586914 13.9965 0.586914H13.9939ZM14.3935 14.9727H5.60224C4.49835 14.9727 3.60423 14.0759 3.60423 12.9746V4.18334H12.3955C13.4994 4.18334 14.3935 5.07995 14.3935 6.18136V14.9727Z" fill="white"/>
</svg>
