<svg width="20" height="22" viewBox="0 0 20 22" fill="none" xmlns="http://www.w3.org/2000/svg">
<path d="M10.0547 13H10.0637M5.05468 21H15.0547M1.57287 9.3058C1.18481 8.23176 0.990785 7.69476 1.07352 7.35065C1.16401 6.97427 1.43168 6.68084 1.77381 6.58296C2.08661 6.49346 2.57321 6.70973 3.54641 7.14227C4.40721 7.52486 4.83761 7.71615 5.242 7.70551C5.68725 7.69379 6.11556 7.51524 6.45628 7.19931C6.76573 6.91237 6.97329 6.45513 7.38841 5.54064L8.30328 3.52525C9.06748 1.84175 9.44958 1 10.0547 1C10.6598 1 11.0419 1.84175 11.8061 3.52525L12.721 5.54064C13.1361 6.45513 13.3437 6.91237 13.6531 7.19931C13.9938 7.51524 14.4221 7.69379 14.8674 7.70551C15.2718 7.71615 15.7022 7.52486 16.563 7.14227C17.5362 6.70973 18.0228 6.49346 18.3356 6.58296C18.6777 6.68084 18.9454 6.97427 19.0359 7.35065C19.1186 7.69476 18.9246 8.23176 18.5365 9.3057L16.8685 13.9222C16.1549 15.897 15.7982 16.8844 15.0515 17.4422C14.3049 18 13.3401 18 11.4105 18H8.69888C6.76927 18 5.80445 18 5.05783 17.4422C4.31122 16.8844 3.95445 15.897 3.2409 13.9222L1.57287 9.3058Z" stroke="white" stroke-width="1.5" stroke-linecap="round"/>
</svg>
