<svg width="16" height="20" viewBox="0 0 16 20" fill="none" xmlns="http://www.w3.org/2000/svg">
<path d="M11 19.001H5M8 1V19.0008M8 1C9.3874 1 11.1695 1.03054 12.5884 1.17648C13.1885 1.23819 13.4886 1.26905 13.7541 1.3779C14.3066 1.60428 14.7518 2.10062 14.9194 2.6768C15 2.95381 15 3.26991 15 3.90214M8 1C6.6126 1 4.83047 1.03054 3.41161 1.17648C2.8115 1.23819 2.51144 1.26905 2.24586 1.3779C1.69344 1.60428 1.24816 2.10062 1.08057 2.6768C1 2.95381 1 3.26991 1 3.90214" stroke="white" stroke-width="1.5" stroke-linecap="round"/>
</svg>
