<svg width="20" height="22" viewBox="0 0 20 22" fill="none" xmlns="http://www.w3.org/2000/svg">
<path d="M14.5 13.978C14.5 12.8856 15.3954 12 16.5 12C17.6046 12 18.5 12.8856 18.5 13.978C18.5 14.3718 18.3837 14.7387 18.1831 15.0469C17.5854 15.9656 16.5 16.8416 16.5 17.9341V18.4286M16.5 21H16.512M11.5 21H9.2273C5.9661 21 4.3355 21 3.2031 20.2022C2.8786 19.9736 2.5906 19.7025 2.3477 19.3971C1.5 18.3313 1.5 16.7966 1.5 13.7273L1.5 11.1818C1.5 8.2186 1.5 6.7371 1.9689 5.5538C2.7228 3.6514 4.3171 2.1509 6.3384 1.4414C7.5956 1 9.1698 1 12.3182 1C14.1172 1 15.0168 0.999999 15.7352 1.2522C16.8902 1.6576 17.8012 2.5151 18.232 3.6021C18.5 4.2783 18.5 5.1249 18.5 6.8182V9M1.5 11C1.5 9.1591 2.9924 7.6667 4.8333 7.6667C5.4991 7.6667 6.284 7.7833 6.9314 7.6099C7.5065 7.4558 7.9558 7.0065 8.1099 6.4314C8.2833 5.784 8.1667 4.9991 8.1667 4.3333C8.1667 2.4924 9.6591 1 11.5 1" stroke="white" stroke-width="1.5" stroke-linecap="round" stroke-linejoin="round"/>
</svg>
