<svg width="67" height="49" viewBox="0 0 67 49" fill="none" xmlns="http://www.w3.org/2000/svg">
<path d="M61.6548 21.7032C62.5516 22.9517 63 23.576 63 24.5C63 25.424 62.5516 26.0483 61.6548 27.2968C57.6248 32.9068 47.3331 45 33.5 45C19.6668 45 9.37519 32.9068 5.34532 27.2968C4.44843 26.0483 4 25.424 4 24.5C4 23.576 4.44843 22.9517 5.34532 21.7032C9.37519 16.0934 19.6668 4 33.5 4C47.3331 4 57.6248 16.0934 61.6548 21.7032Z" stroke="url(#paint0_linear_726_422)" stroke-width="7" stroke-linecap="round" stroke-linejoin="round"/>
<path d="M42.35 24.5C42.35 19.6477 38.3879 15.7143 33.5 15.7143C28.6121 15.7143 24.65 19.6477 24.65 24.5C24.65 29.3524 28.6121 33.2857 33.5 33.2857C38.3879 33.2857 42.35 29.3524 42.35 24.5Z" stroke="url(#paint1_linear_726_422)" stroke-width="7" stroke-linecap="round" stroke-linejoin="round"/>
<defs>
<linearGradient id="paint0_linear_726_422" x1="33.5" y1="4" x2="33.5" y2="41.9413" gradientUnits="userSpaceOnUse">
<stop stop-color="#73C64A"/>
<stop offset="1" stop-color="#138950"/>
</linearGradient>
<linearGradient id="paint1_linear_726_422" x1="33.5" y1="4" x2="33.5" y2="41.9413" gradientUnits="userSpaceOnUse">
<stop stop-color="#73C64A"/>
<stop offset="1" stop-color="#138950"/>
</linearGradient>
</defs>
</svg>
