<svg width="22" height="22" viewBox="0 0 22 22" fill="none" xmlns="http://www.w3.org/2000/svg">
<path d="M17.1494 9.6448L17.3649 8.92644L17.3649 8.92643L17.1494 9.6448ZM7 7.25C6.58579 7.25 6.25 7.58579 6.25 8C6.25 8.41421 6.58579 8.75 7 8.75V7.25ZM10 8.75C10.4142 8.75 10.75 8.41421 10.75 8C10.75 7.58579 10.4142 7.25 10 7.25V8.75ZM7 11.25C6.58579 11.25 6.25 11.5858 6.25 12C6.25 12.4142 6.58579 12.75 7 12.75V11.25ZM10 12.75C10.4142 12.75 10.75 12.4142 10.75 12C10.75 11.5858 10.4142 11.25 10 11.25V12.75ZM6.29289 16.2929L5.76256 15.7626L5.76255 15.7626L6.29289 16.2929ZM1 20.25C0.585786 20.25 0.25 20.5858 0.25 21C0.25 21.4142 0.585786 21.75 1 21.75V20.25ZM21 21.75C21.4142 21.75 21.75 21.4142 21.75 21C21.75 20.5858 21.4142 20.25 21 20.25V21.75ZM1.25 21C1.25 21.4142 1.58579 21.75 2 21.75C2.41421 21.75 2.75 21.4142 2.75 21H1.25ZM2.79118 1.32824L2.32725 0.738946L2.32725 0.738949L2.79118 1.32824ZM7.07752 1.7199L6.86845 2.44017L6.86845 2.44017L7.07752 1.7199ZM12.0775 3.17122L12.2866 2.45095L12.2866 2.45095L12.0775 3.17122ZM14.5933 4.33965L13.9878 4.78226L13.9879 4.78233L14.5933 4.33965ZM14.25 21C14.25 21.4142 14.5858 21.75 15 21.75C15.4142 21.75 15.75 21.4142 15.75 21H14.25ZM14.7845 9.71837L16.9339 10.3632L17.3649 8.92643L15.2155 8.28163L14.7845 9.71837ZM16.9339 10.3632C17.6374 10.5742 18.1031 10.7152 18.4466 10.8634C18.772 11.0038 18.9126 11.1205 19.0029 11.2419L20.2063 10.3465C19.9012 9.93648 19.5008 9.68454 19.0408 9.48608C18.5988 9.29539 18.0346 9.12736 17.3649 8.92644L16.9339 10.3632ZM19.0029 11.2419C19.0932 11.3633 19.1646 11.5315 19.2056 11.8835C19.2488 12.255 19.25 12.7416 19.25 13.4761H20.75C20.75 12.777 20.7512 12.1883 20.6956 11.7102C20.6377 11.2125 20.5114 10.7565 20.2063 10.3465L19.0029 11.2419ZM19.25 13.4761V21H20.75V13.4761H19.25ZM7 8.75H10V7.25H7V8.75ZM7 12.75H10V11.25H7V12.75ZM11.75 21V18H10.25V21H11.75ZM11.75 18C11.75 17.5498 11.7516 17.1367 11.7067 16.8028C11.6589 16.4473 11.5465 16.0716 11.2374 15.7626L10.1768 16.8232C10.1772 16.8237 10.1772 16.8237 10.1769 16.8234C10.1766 16.823 10.1765 16.8228 10.1765 16.8228C10.1766 16.8229 10.1771 16.8238 10.1781 16.8257C10.1791 16.8276 10.1808 16.8309 10.1828 16.836C10.1918 16.8578 10.2071 16.9061 10.2201 17.0027C10.2484 17.2134 10.25 17.5074 10.25 18H11.75ZM11.2374 15.7626C10.9284 15.4535 10.5527 15.3411 10.1972 15.2933C9.8633 15.2484 9.4502 15.25 9 15.25V16.75C9.4926 16.75 9.7866 16.7516 9.99732 16.7799C10.0939 16.7929 10.1422 16.8082 10.164 16.8172C10.1691 16.8192 10.1724 16.8209 10.1743 16.8219C10.1762 16.8229 10.1771 16.8234 10.1772 16.8235C10.1772 16.8235 10.177 16.8234 10.1766 16.8231C10.1763 16.8228 10.1763 16.8228 10.1768 16.8232L11.2374 15.7626ZM9 15.25H8V16.75H9V15.25ZM8 15.25C7.5498 15.25 7.1367 15.2484 6.80279 15.2933C6.44731 15.3411 6.07158 15.4535 5.76256 15.7626L6.82322 16.8232C6.82368 16.8228 6.82369 16.8228 6.82335 16.8231C6.823 16.8234 6.82277 16.8235 6.82284 16.8235C6.82292 16.8234 6.82377 16.8229 6.82567 16.8219C6.82761 16.8209 6.83092 16.8192 6.83597 16.8172C6.85775 16.8082 6.90611 16.7929 7.00267 16.7799C7.21339 16.7516 7.50739 16.75 8 16.75V15.25ZM5.76255 15.7626C5.45354 16.0716 5.34109 16.4473 5.2933 16.8028C5.24841 17.1367 5.25 17.5498 5.25 18H6.75C6.75 17.5074 6.75159 17.2134 6.77992 17.0027C6.79291 16.9061 6.8082 16.8578 6.81716 16.836C6.81923 16.8309 6.82085 16.8276 6.82186 16.8257C6.82286 16.8238 6.82341 16.8229 6.82347 16.8228C6.82351 16.8228 6.82336 16.823 6.82307 16.8234C6.82279 16.8237 6.82277 16.8237 6.82323 16.8232L5.76255 15.7626ZM5.25 18V21H6.75V18H5.25ZM1 21.75H21V20.25H1V21.75ZM2.75 21V5.71724H1.25V21H2.75ZM2.75 5.71724C2.75 4.43884 2.75176 3.5601 2.84164 2.9189C2.92946 2.29238 3.08211 2.05374 3.25511 1.91754L2.32725 0.738949C1.70907 1.22562 1.46613 1.9261 1.35616 2.71068C1.24824 3.48057 1.25 4.48489 1.25 5.71724H2.75ZM3.25511 1.91754C3.42139 1.78664 3.66721 1.70117 4.25774 1.78023C4.87003 1.86221 5.6796 2.09509 6.86845 2.44017L7.28659 0.999632C6.14534 0.668366 5.20733 0.393983 4.45678 0.293498C3.68446 0.190098 2.95216 0.246979 2.32725 0.738946L3.25511 1.91754ZM6.86845 2.44017L11.8684 3.89149L12.2866 2.45095L7.28659 0.999632L6.86845 2.44017ZM11.8684 3.89149C12.5891 4.10069 13.0651 4.24016 13.416 4.38982C13.7469 4.5309 13.8922 4.65151 13.9878 4.78226L15.1988 3.89704C14.8878 3.47159 14.4782 3.21205 14.0044 3.01001C13.5506 2.81654 12.972 2.64991 12.2866 2.45095L11.8684 3.89149ZM13.9879 4.78233C14.0853 4.9156 14.161 5.10069 14.2039 5.47903C14.2489 5.87533 14.25 6.39374 14.25 7.16857H15.75C15.75 6.42828 15.7511 5.81033 15.6944 5.31001C15.6356 4.79173 15.508 4.31992 15.1987 3.89698L13.9879 4.78233ZM14.25 7.16857V21H15.75V7.16857H14.25Z" fill="white"/>
</svg>
