<svg width="20" height="18" viewBox="0 0 20 18" fill="none" xmlns="http://www.w3.org/2000/svg">
<path d="M13.6667 2.66502C13.2055 2.66502 12.8317 3.03886 12.8317 3.50002C12.8317 3.96118 13.2055 4.33502 13.6667 4.33502L13.6667 2.66502ZM18.25 4.33502C18.7112 4.33502 19.085 3.96118 19.085 3.50002C19.085 3.03886 18.7112 2.66502 18.25 2.66502L18.25 4.33502ZM1.75 2.66502C1.28884 2.66502 0.915 3.03886 0.915 3.50002C0.915 3.96118 1.28884 4.33502 1.75 4.33502L1.75 2.66502ZM10 4.33502C10.4612 4.33502 10.835 3.96118 10.835 3.50002C10.835 3.03886 10.4612 2.66502 10 2.66502L10 4.33502ZM1.75 13.665C1.28884 13.665 0.915 14.0389 0.915 14.5C0.915 14.9612 1.28884 15.335 1.75 15.335L1.75 13.665ZM10 15.335C10.4612 15.335 10.835 14.9612 10.835 14.5C10.835 14.0389 10.4612 13.665 10 13.665L10 15.335ZM1.75 8.16502C1.28884 8.16502 0.915 8.53886 0.915 9.00002C0.915 9.46118 1.28884 9.83502 1.75 9.83502V8.16502ZM6.33333 9.83502C6.79449 9.83502 7.16833 9.46118 7.16833 9.00002C7.16833 8.53886 6.79449 8.16502 6.33333 8.16502V9.83502ZM10 8.16502C9.53884 8.16502 9.165 8.53886 9.165 9.00002C9.165 9.46118 9.53884 9.83502 10 9.83502V8.16502ZM18.25 9.83502C18.7112 9.83502 19.085 9.46118 19.085 9.00002C19.085 8.53886 18.7112 8.16502 18.25 8.16502V9.83502ZM13.6667 13.665C13.2055 13.665 12.8317 14.0389 12.8317 14.5C12.8317 14.9612 13.2055 15.335 13.6667 15.335V13.665ZM18.25 15.335C18.7112 15.335 19.085 14.9612 19.085 14.5C19.085 14.0389 18.7112 13.665 18.25 13.665V15.335ZM14.5017 1.66669C14.5017 1.20553 14.1278 0.831687 13.6667 0.831687C13.2055 0.831687 12.8317 1.20553 12.8317 1.66669H14.5017ZM12.8317 5.33335C12.8317 5.79451 13.2055 6.16835 13.6667 6.16835C14.1278 6.16835 14.5017 5.79451 14.5017 5.33335H12.8317ZM7.16833 7.16669C7.16833 6.70553 6.79449 6.33169 6.33333 6.33169C5.87218 6.33169 5.49833 6.70553 5.49833 7.16669H7.16833ZM5.49833 10.8334C5.49833 11.2945 5.87218 11.6684 6.33333 11.6684C6.79449 11.6684 7.16833 11.2945 7.16833 10.8334H5.49833ZM14.5017 12.6667C14.5017 12.2055 14.1278 11.8317 13.6667 11.8317C13.2055 11.8317 12.8317 12.2055 12.8317 12.6667H14.5017ZM12.8317 16.3334C12.8317 16.7945 13.2055 17.1684 13.6667 17.1684C14.1278 17.1684 14.5017 16.7945 14.5017 16.3334H12.8317ZM13.6667 4.33502L18.25 4.33502L18.25 2.66502L13.6667 2.66502L13.6667 4.33502ZM1.75 4.33502L10 4.33502L10 2.66502L1.75 2.66502L1.75 4.33502ZM1.75 15.335L10 15.335L10 13.665L1.75 13.665L1.75 15.335ZM1.75 9.83502H6.33333V8.16502H1.75V9.83502ZM10 9.83502H18.25V8.16502H10V9.83502ZM13.6667 15.335H18.25V13.665H13.6667V15.335ZM12.8317 1.66669V5.33335H14.5017V1.66669H12.8317ZM5.49833 7.16669V10.8334H7.16833V7.16669H5.49833ZM12.8317 12.6667V16.3334H14.5017V12.6667H12.8317Z" fill="white"/>
</svg>
