<svg width="22" height="21" viewBox="0 0 22 21" fill="none" xmlns="http://www.w3.org/2000/svg">
<path d="M6.00232 6.34259L8.94434 8.08202C10.6595 9.09609 11.3451 9.09609 13.0603 8.08202L16.0023 6.34259M20.9976 9.34259V8.37103C20.9322 5.30373 20.8995 3.77008 19.7678 2.634C18.636 1.49791 17.0609 1.45833 13.9106 1.37918C11.9691 1.3304 10.0466 1.33039 8.10508 1.37917C4.95484 1.45832 3.37972 1.49789 2.24796 2.63398C1.11621 3.77007 1.0835 5.30372 1.01809 8.37102C0.997062 9.35729 0.997062 10.3377 1.01809 11.324C1.08351 14.3913 1.11621 15.9249 2.24797 17.061C3.37972 18.1971 4.95484 18.2367 8.10509 18.3158C8.57334 18.3276 9.5357 18.3365 10.0023 18.3426M19.8546 12.2819L20.5469 12.9743C21.1327 13.5601 21.1327 14.5098 20.5469 15.0956L16.9195 18.7913C16.6342 19.0766 16.2692 19.269 15.8725 19.3431L13.6243 19.8311C13.2694 19.9082 12.9533 19.593 13.0293 19.2378L13.5079 17.0025C13.582 16.6058 13.7743 16.2408 14.0597 15.9555L17.7332 12.2819C18.319 11.6962 19.2688 11.6962 19.8546 12.2819Z" stroke="white" stroke-width="1.25" stroke-linecap="round" stroke-linejoin="round"/>
</svg>
