<?xml version="1.0" encoding="UTF-8"?>
<svg id="Layer_1" data-name="Layer 1" xmlns="http://www.w3.org/2000/svg" xmlns:xlink="http://www.w3.org/1999/xlink" viewBox="0 0 901 901">
  <defs>
    <style>
      .cls-1 {
        fill: #2b2b2b;
        stroke: #231f20;
        stroke-miterlimit: 10;
      }

      .cls-2 {
        fill: url(#linear-gradient-2);
      }

      .cls-2, .cls-3, .cls-4 {
        fill-rule: evenodd;
      }

      .cls-3 {
        fill: url(#linear-gradient);
      }

      .cls-4 {
        fill: url(#linear-gradient-3);
      }
    </style>
    <linearGradient id="linear-gradient" x1="602.12" y1="208.62" x2="745.17" y2="456.38" gradientUnits="userSpaceOnUse">
      <stop offset="0" stop-color="#febe3d"/>
      <stop offset=".04" stop-color="#fbb13d"/>
      <stop offset=".12" stop-color="#f69f3e"/>
      <stop offset=".21" stop-color="#f3933e"/>
      <stop offset=".3" stop-color="#f3903f"/>
      <stop offset=".99" stop-color="#e93e3a"/>
      <stop offset="1" stop-color="#e9443a"/>
    </linearGradient>
    <linearGradient id="linear-gradient-2" x1="129.74" y1="325.61" x2="318.14" y2="651.92" gradientUnits="userSpaceOnUse">
      <stop offset="0" stop-color="#febe3d"/>
      <stop offset=".05" stop-color="#fbb13d"/>
      <stop offset=".15" stop-color="#f69f3e"/>
      <stop offset=".26" stop-color="#f3933e"/>
      <stop offset=".37" stop-color="#f3903f"/>
      <stop offset="1" stop-color="#e93e3a"/>
    </linearGradient>
    <linearGradient id="linear-gradient-3" x1="258" y1="232.29" x2="566.58" y2="766.77" gradientUnits="userSpaceOnUse">
      <stop offset="0" stop-color="#febe3d"/>
      <stop offset=".02" stop-color="#fbb13d"/>
      <stop offset=".08" stop-color="#f69f3e"/>
      <stop offset=".13" stop-color="#f3933e"/>
      <stop offset=".18" stop-color="#f3903f"/>
      <stop offset="1" stop-color="#e93e3a"/>
    </linearGradient>
  </defs>
  <rect id="background" class="cls-1" x=".5" y=".5" width="900" height="900" rx="156.32" ry="156.32"/>
  <g id="Fox">
    <path id="tail" class="cls-3" d="m750.58,141.84c-17.33,39.63-14.86,76.77-7.43,113.92-14.86-17.33-29.72-37.14-32.19-56.96-27.24,7.43-44.58,27.24-59.44,47.06,12.38-52.01,37.15-91.63,99.06-104.01h0Zm24.76-12.39c-54.49,54.49-7.43,148.59-14.86,237.74-7.43,104.01-101.53,156.02-195.65,156.02v-34.67c39.63-9.91,56.96-47.06,59.44-99.06,0-94.11-17.33-240.22,151.07-260.03h0Z"/>
    <path id="leg" class="cls-2" d="m312.24,560.38c-52.01,39.63-56.96,27.24-37.15,116.4-64.39-94.11-69.34-64.39,4.95-151.07-22.29-76.78-79.25-138.69-170.88-188.22,104.01,42.1,183.26,111.44,203.08,222.89h0Z"/>
    <path id="body" class="cls-4" d="m109.16,337.49c12.38-59.44,126.3-7.43,151.07-106.49,9.91,7.43,22.29,32.19,12.38,54.49-2.48,9.91,24.76-32.19,39.63-44.58-27.24,200.6,128.78,163.45,252.6,210.5,106.49,37.14,66.87,180.78,71.82,274.89-104.01-250.12-195.65-252.6-284.8,0-2.48-200.6,2.48-369-242.7-388.81h0Z"/>
  </g>
</svg>