<?xml version="1.0" encoding="UTF-8"?>
<svg id="Layer_1" data-name="Layer 1" xmlns="http://www.w3.org/2000/svg" xmlns:xlink="http://www.w3.org/1999/xlink" viewBox="0 0 892.74 799.82">
  <defs>
    <style>
      .cls-1 {
        fill: url(#linear-gradient-2);
      }

      .cls-1, .cls-2, .cls-3 {
        fill-rule: evenodd;
      }

      .cls-2 {
        fill: url(#linear-gradient);
      }

      .cls-3 {
        fill: url(#linear-gradient-3);
      }
    </style>
    <linearGradient id="linear-gradient" x1="660.61" y1="106.07" x2="852.3" y2="438.09" gradientUnits="userSpaceOnUse">
      <stop offset="0" stop-color="#febe3d"/>
      <stop offset=".04" stop-color="#fbb13d"/>
      <stop offset=".12" stop-color="#f69f3e"/>
      <stop offset=".21" stop-color="#f3933e"/>
      <stop offset=".3" stop-color="#f3903f"/>
      <stop offset=".99" stop-color="#e93e3a"/>
      <stop offset="1" stop-color="#e9443a"/>
    </linearGradient>
    <linearGradient id="linear-gradient-2" x1="27.58" y1="262.85" x2="280.05" y2="700.13" gradientUnits="userSpaceOnUse">
      <stop offset="0" stop-color="#febe3d"/>
      <stop offset=".05" stop-color="#fbb13d"/>
      <stop offset=".15" stop-color="#f69f3e"/>
      <stop offset=".26" stop-color="#f3933e"/>
      <stop offset=".37" stop-color="#f3903f"/>
      <stop offset="1" stop-color="#e93e3a"/>
    </linearGradient>
    <linearGradient id="linear-gradient-3" x1="199.46" y1="137.8" x2="612.98" y2="854.04" gradientUnits="userSpaceOnUse">
      <stop offset="0" stop-color="#febe3d"/>
      <stop offset=".02" stop-color="#fbb13d"/>
      <stop offset=".08" stop-color="#f69f3e"/>
      <stop offset=".13" stop-color="#f3933e"/>
      <stop offset=".18" stop-color="#f3903f"/>
      <stop offset="1" stop-color="#e93e3a"/>
    </linearGradient>
  </defs>
  <g id="Fox">
    <path id="tail" class="cls-2" d="m859.55,16.59c-23.23,53.1-19.91,102.88-9.96,152.67-19.91-23.23-39.82-49.78-43.14-76.33-36.5,9.96-59.74,36.5-79.65,63.06,16.59-69.7,49.79-122.79,132.75-139.38h0ZM892.74,0c-73.01,73.01-9.96,199.12-19.91,318.6-9.96,139.38-136.06,209.08-262.18,209.08v-46.46c53.1-13.27,76.33-63.06,79.65-132.75C690.3,222.36,667.07,26.56,892.74,0h0Z"/>
    <path id="leg" class="cls-1" d="m272.14,577.46c-69.7,53.1-76.33,36.5-49.79,155.98-86.29-126.11-92.93-86.29,6.64-202.44C199.12,428.11,122.79,345.14,0,278.78c139.38,56.42,245.58,149.34,272.14,298.69h0Z"/>
    <path id="body" class="cls-3" d="m0,278.78c16.59-79.65,169.26-9.96,202.44-142.7,13.27,9.96,29.87,43.14,16.59,73.01-3.32,13.27,33.18-43.14,53.1-59.74-36.5,268.82,172.58,219.03,338.51,282.09,142.7,49.78,89.61,242.26,96.24,368.38-139.38-335.19-262.18-338.51-381.66,0C321.91,531,328.55,305.33,0,278.78h0Z"/>
  </g>
</svg>