<?xml version="1.0" encoding="UTF-8"?>
<svg id="Layer_1" data-name="Layer 1" xmlns="http://www.w3.org/2000/svg" xmlns:xlink="http://www.w3.org/1999/xlink" viewBox="0 0 93 37">
  <defs>
    <style>
      .cls-1 {
        fill: url(#linear-gradient-4);
      }

      .cls-1, .cls-2, .cls-3 {
        fill-rule: evenodd;
      }

      .cls-2 {
        fill: url(#linear-gradient-2);
      }

      .cls-4 {
        fill: #2b2b2b;
      }

      .cls-5 {
        fill: url(#linear-gradient);
      }

      .cls-3 {
        fill: url(#linear-gradient-3);
      }
    </style>
    <linearGradient id="linear-gradient" x1="87.79" y1="-12.44" x2="43.85" y2="50.31" gradientTransform="translate(0 38) scale(1 -1)" gradientUnits="userSpaceOnUse">
      <stop offset="0" stop-color="#73c64a"/>
      <stop offset="1" stop-color="#138950"/>
    </linearGradient>
    <linearGradient id="linear-gradient-2" x1="23.75" y1="7.59" x2="30.4" y2="19.1" gradientUnits="userSpaceOnUse">
      <stop offset="0" stop-color="#fdbe3d"/>
      <stop offset=".04" stop-color="#f9b03d"/>
      <stop offset=".12" stop-color="#f59e3e"/>
      <stop offset=".21" stop-color="#f2923e"/>
      <stop offset=".3" stop-color="#f28f3f"/>
      <stop offset=".99" stop-color="#e83e39"/>
      <stop offset="1" stop-color="#e9443a"/>
    </linearGradient>
    <linearGradient id="linear-gradient-3" x1="5.12" y1="13.52" x2="13.52" y2="28.07" gradientUnits="userSpaceOnUse">
      <stop offset="0" stop-color="#fdbe3d"/>
      <stop offset=".05" stop-color="#f9b03d"/>
      <stop offset=".15" stop-color="#f59e3e"/>
      <stop offset=".26" stop-color="#f2923e"/>
      <stop offset=".37" stop-color="#f28f3f"/>
      <stop offset="1" stop-color="#e83e39"/>
    </linearGradient>
    <linearGradient id="linear-gradient-4" x1="9.9" y1="9.27" x2="23.49" y2="32.8" gradientUnits="userSpaceOnUse">
      <stop offset="0" stop-color="#fdbe3d"/>
      <stop offset=".03" stop-color="#f9b03d"/>
      <stop offset=".08" stop-color="#f59e3e"/>
      <stop offset=".13" stop-color="#f2923e"/>
      <stop offset=".18" stop-color="#f28f3f"/>
      <stop offset="1" stop-color="#e83e39"/>
    </linearGradient>
  </defs>
  <path class="cls-5" d="m50.01,18.34c-1.34,0-2.58-.22-3.72-.67-1.12-.45-2.1-1.07-2.95-1.87-.83-.8-1.48-1.74-1.94-2.83-.46-1.09-.7-2.26-.7-3.53s.22-2.46.67-3.53c.46-1.07,1.11-2.01,1.94-2.81.83-.8,1.81-1.42,2.93-1.85,1.14-.45,2.38-.67,3.72-.67s2.58.22,3.7.67c1.14.43,2.12,1.05,2.95,1.85.83.8,1.47,1.74,1.92,2.83.46,1.07.7,2.25.7,3.53s-.23,2.44-.7,3.53c-.45,1.07-1.09,2.02-1.92,2.83-.83.8-1.81,1.42-2.93,1.87-1.12.43-2.34.65-3.67.65Zm-.05-4.22c.9,0,1.67-.19,2.33-.58s1.16-.93,1.51-1.63c.35-.7.53-1.53.53-2.47,0-.7-.1-1.34-.31-1.9-.19-.58-.48-1.06-.86-1.46-.38-.42-.85-.73-1.39-.94-.53-.22-1.13-.34-1.8-.34-.9,0-1.67.19-2.33.58-.66.37-1.16.9-1.51,1.61-.35.69-.53,1.5-.53,2.45,0,.72.1,1.37.29,1.94.21.58.5,1.07.89,1.49.38.4.84.71,1.37.94.54.21,1.15.31,1.82.31Zm18.42,4.18c-1.5,0-2.82-.3-3.94-.91-1.12-.62-1.99-1.48-2.62-2.57-.62-1.09-.94-2.34-.94-3.74V.91h4.8v10.58c0,.54.12,1.01.36,1.39.24.38.56.68.96.89.42.19.87.29,1.37.29s.96-.1,1.34-.29c.4-.21.71-.5.94-.86.22-.38.34-.85.34-1.39V.91h4.82v10.18c0,1.41-.31,2.66-.94,3.74-.61,1.07-1.47,1.92-2.59,2.54-1.1.61-2.41.91-3.91.91Zm13.84-7.1v-3.31h2.9c.66,0,1.15-.16,1.49-.48.35-.32.53-.74.53-1.27s-.18-.95-.53-1.27c-.34-.32-.83-.48-1.49-.48h-2.9V.91h3.67c1.18,0,2.22.22,3.12.65.9.43,1.6,1.03,2.11,1.8s.77,1.66.77,2.69-.26,1.92-.79,2.69c-.51.77-1.23,1.37-2.16,1.8-.93.43-2.02.65-3.29.65h-3.43Zm-3.89,6.82V.91h4.8v17.09h-4.8Zm9.22,0l-4.66-7.3,4.32-.94,5.78,8.23h-5.45Zm-42.26,19v-4.08h3.98c.9,0,1.67-.16,2.33-.48.66-.34,1.16-.84,1.51-1.51.35-.67.53-1.5.53-2.5s-.18-1.82-.55-2.47c-.35-.66-.86-1.14-1.51-1.46-.64-.34-1.41-.5-2.3-.5h-4.22v-4.08h4.22c1.34,0,2.58.2,3.7.6,1.14.4,2.12.98,2.95,1.73.83.75,1.47,1.66,1.92,2.71.46,1.04.7,2.21.7,3.5s-.23,2.47-.7,3.53c-.45,1.04-1.09,1.94-1.92,2.69-.83.75-1.81,1.33-2.93,1.73-1.12.4-2.34.6-3.67.6h-4.03Zm-3.22,0v-17.09h4.8v17.09h-4.8Zm18.42,0v-17.09h4.8v17.09h-4.8Zm3.89,0v-3.98h9.17v3.98h-9.17Zm0-6.77v-3.89h8.28v3.89h-8.28Zm0-6.34v-3.98h9.02v3.98h-9.02Zm11.44,13.1v-17.09h3.36l1.44,3.6v13.49h-4.8Zm11.76,0l-9.91-12.46,1.51-4.63,9.91,12.46-1.51,4.63Zm0,0l-1.2-3.79v-13.3h4.8v17.09h-3.6Z"/>
  <g>
    <rect class="cls-4" width="37" height="37" rx="13" ry="13"/>
    <g id="Fox">
      <path id="tail" class="cls-2" d="m30.1,4.61c-.68,1.83-.58,3.54-.29,5.25-.58-.8-1.17-1.71-1.26-2.63-1.07.34-1.75,1.26-2.33,2.17.49-2.4,1.46-4.23,3.89-4.8h0Zm.97-.57c-2.14,2.51-.29,6.85-.58,10.97-.29,4.8-3.99,7.2-7.68,7.2v-1.6c1.56-.46,2.24-2.17,2.33-4.57,0-4.34-.68-11.08,5.93-11.99h0Z"/>
      <path id="leg" class="cls-3" d="m12.89,23.91c-2.04,1.83-2.24,1.26-1.46,5.37-2.53-4.34-2.72-2.97.19-6.97-.87-3.54-3.11-6.4-6.71-8.68,4.08,1.94,7.19,5.14,7.97,10.28h0Z"/>
      <path id="body" class="cls-1" d="m4.92,13.63c.49-2.74,4.96-.34,5.93-4.91.39.34.87,1.48.49,2.51-.1.46.97-1.48,1.56-2.06-1.07,9.25,5.06,7.54,9.92,9.71,4.18,1.71,2.63,8.34,2.82,12.68-4.08-11.54-7.68-11.65-11.18,0-.1-9.25.1-17.02-9.53-17.93h0Z"/>
    </g>
  </g>
</svg>