<svg width="19" height="18" viewBox="0 0 19 18" fill="none" xmlns="http://www.w3.org/2000/svg">
<path d="M6.79065 14.4093L7.41406 14.3647L7.41406 14.3647L6.79065 14.4093ZM12.2084 14.4093L12.8318 14.4538L12.8318 14.4538L12.2084 14.4093ZM1.45957 10.0113L0.841824 10.1062L0.841825 10.1062L1.45957 10.0113ZM1.38022 6.29117L1.95511 6.53638L1.95512 6.53637L1.38022 6.29117ZM4.15103 3.7009L3.78483 3.19442L3.78483 3.19442L4.15103 3.7009ZM5.35091 2.83335L5.71711 3.33983L5.71711 3.33983L5.35091 2.83335ZM13.6492 2.83335L13.283 3.33983L13.283 3.33984L13.6492 2.83335ZM14.8491 3.7009L15.2154 3.19443L15.2153 3.19442L14.8491 3.7009ZM17.62 6.29117L17.0451 6.53637L17.0451 6.53637L17.62 6.29117ZM17.5406 10.0113L16.9228 9.91632L16.9228 9.91635L17.5406 10.0113ZM17.2897 11.6437L17.9075 11.7386L17.9075 11.7386L17.2897 11.6437ZM1.71044 11.6437L2.32819 11.5488L2.32819 11.5488L1.71044 11.6437ZM7.62292 17.2888L7.41406 14.3647L6.16724 14.4538L6.3761 17.3779L7.62292 17.2888ZM7.41406 14.3647C7.32761 13.1545 8.28619 12.125 9.49948 12.125V10.875C7.56077 10.875 6.02911 12.5199 6.16724 14.4538L7.41406 14.3647ZM9.49948 12.125C10.7128 12.125 11.6714 13.1545 11.585 14.3648L12.8318 14.4538C12.9699 12.5199 11.4383 10.875 9.49948 10.875V12.125ZM11.585 14.3647L11.3761 17.2888L12.6229 17.3779L12.8318 14.4538L11.585 14.3647ZM2.07732 9.91634C1.92827 8.94635 1.82449 8.26587 1.79813 7.72129C1.77249 7.19168 1.82406 6.84363 1.95511 6.53638L0.805332 6.04596C0.574458 6.58725 0.518619 7.14205 0.549589 7.78174C0.579834 8.40647 0.696698 9.16178 0.841824 10.1062L2.07732 9.91634ZM1.95512 6.53637C2.08667 6.22794 2.30593 5.94276 2.71392 5.58077C3.13189 5.20993 3.70419 4.79525 4.51723 4.20738L3.78483 3.19442C2.99195 3.7677 2.3598 4.22388 1.88432 4.64575C1.39887 5.07647 1.0357 5.50585 0.80533 6.04597L1.95512 6.53637ZM4.51723 4.20738L5.71711 3.33983L4.9847 2.32687L3.78483 3.19442L4.51723 4.20738ZM5.71711 3.33983C6.72772 2.60912 7.4434 2.09286 8.04831 1.7534C8.63877 1.42206 9.06927 1.29169 9.50006 1.29169V0.041687C8.77836 0.041687 8.13316 0.272426 7.4366 0.663308C6.75449 1.04608 5.97184 1.61314 4.9847 2.32687L5.71711 3.33983ZM9.50006 1.29169C9.93091 1.29169 10.3614 1.42206 10.9518 1.7534C11.5568 2.09285 12.2724 2.60912 13.283 3.33983L14.0154 2.32687C13.0283 1.61315 12.2457 1.04608 11.5636 0.66331C10.867 0.272423 10.2218 0.041687 9.50006 0.041687V1.29169ZM13.283 3.33984L14.483 4.20739L15.2153 3.19442L14.0154 2.32687L13.283 3.33984ZM14.4829 4.20738C15.296 4.79525 15.8683 5.20993 16.2863 5.58077C16.6943 5.94277 16.9135 6.22794 17.0451 6.53637L18.1949 6.04597C17.9645 5.50585 17.6013 5.07646 17.1159 4.64574C16.6404 4.22388 16.0082 3.7677 15.2154 3.19443L14.4829 4.20738ZM17.0451 6.53637C17.1761 6.84362 17.2277 7.19167 17.2021 7.72129C17.1757 8.26586 17.0719 8.94633 16.9228 9.91632L18.1583 10.1062C18.3035 9.16179 18.4204 8.40649 18.4506 7.78175C18.4816 7.14205 18.4257 6.58726 18.1949 6.04597L17.0451 6.53637ZM16.9228 9.91635L16.672 11.5488L17.9075 11.7386L18.1583 10.1062L16.9228 9.91635ZM16.672 11.5488C16.4609 12.9222 16.3106 13.8924 16.0986 14.6239C15.8921 15.3366 15.6468 15.7476 15.2912 16.0433L16.0906 17.0044C16.7083 16.4906 17.0539 15.8184 17.2992 14.9718C17.5391 14.1441 17.7015 13.079 17.9075 11.7386L16.672 11.5488ZM15.2912 16.0433C14.9331 16.3412 14.4678 16.5181 13.6968 16.6117C12.9101 16.7073 11.8876 16.7084 10.4491 16.7084V17.9584C11.8563 17.9584 12.968 17.9594 13.8475 17.8526C14.7427 17.7439 15.4754 17.516 16.0906 17.0044L15.2912 16.0433ZM10.4491 16.7084H8.55107V17.9584H10.4491V16.7084ZM8.55107 16.7084C7.11255 16.7084 6.09002 16.7073 5.30335 16.6117C4.53231 16.5181 4.06703 16.3412 3.70891 16.0433L2.90958 17.0044C3.52473 17.516 4.2575 17.7439 5.15263 17.8526C6.03213 17.9594 7.14388 17.9584 8.55107 17.9584V16.7084ZM3.70891 16.0433C3.35336 15.7476 3.10807 15.3366 2.90156 14.6239C2.6896 13.8924 2.53925 12.9222 2.32819 11.5488L1.09269 11.7386C1.29867 13.079 1.46109 14.144 1.70095 14.9718C1.94628 15.8184 2.29187 16.4906 2.90958 17.0044L3.70891 16.0433ZM2.32819 11.5488L2.07732 9.91634L0.841825 10.1062L1.09269 11.7386L2.32819 11.5488Z" fill="#F2F2F2" fill-opacity="0.7"/>
</svg>
