<svg width="22" height="22" viewBox="0 0 22 22" fill="none" xmlns="http://www.w3.org/2000/svg">
<path d="M3.35762 4.25272L2.66732 3.95949L2.66732 3.95949L3.35762 4.25272ZM4.7219 2.50609L4.27565 1.9033L4.27565 1.9033L4.7219 2.50609ZM8.29665 1.42326L8.43968 2.1595L8.43968 2.1595L8.29665 1.42326ZM12.0467 1.15208L11.7695 1.84896L11.7695 1.84897L12.0467 1.15208ZM13.5789 2.51833L14.2343 2.15376L14.2343 2.15369L13.5789 2.51833ZM13.5789 19.4817L14.2343 19.8463L14.2343 19.8463L13.5789 19.4817ZM12.0467 20.8479L11.7695 20.151L11.7694 20.151L12.0467 20.8479ZM8.29665 20.5767L8.4397 19.8405L8.43965 19.8405L8.29665 20.5767ZM4.7219 19.4939L5.16819 18.8911L5.16814 18.8911L4.7219 19.4939ZM3.35762 17.7473L2.66732 18.0405L2.66732 18.0405L3.35762 17.7473ZM18.4375 18.0885L19.0277 18.5513L19.0277 18.5513L18.4375 18.0885ZM18.4375 3.91152L17.8473 4.37434L17.8473 4.37436L18.4375 3.91152ZM10.25 12C10.25 12.4142 10.5858 12.75 11 12.75C11.4142 12.75 11.75 12.4142 11.75 12H10.25ZM11.75 10C11.75 9.58579 11.4142 9.25 11 9.25C10.5858 9.25 10.25 9.58579 10.25 10H11.75ZM18 17.9766C17.5858 17.9766 17.25 18.3124 17.25 18.7266C17.25 19.1408 17.5858 19.4766 18 19.4766V17.9766ZM21 19.4766C21.4142 19.4766 21.75 19.1408 21.75 18.7266C21.75 18.3124 21.4142 17.9766 21 17.9766V19.4766ZM1 18.25C0.585786 18.25 0.25 18.5858 0.25 19C0.25 19.4142 0.585786 19.75 1 19.75V18.25ZM4 19.75C4.41421 19.75 4.75 19.4142 4.75 19C4.75 18.5858 4.41421 18.25 4 18.25V19.75ZM3.75 8.20433C3.75 7.15706 3.75045 6.41094 3.79278 5.82043C3.83451 5.23843 3.91434 4.86042 4.04792 4.54596L2.66732 3.95949C2.44328 4.4869 2.3443 5.04811 2.29662 5.71316C2.24955 6.3697 2.25 7.17844 2.25 8.20433H3.75ZM4.04792 4.54596C4.29619 3.96151 4.68527 3.46637 5.16815 3.10888L4.27565 1.9033C3.57033 2.42546 3.01649 3.13751 2.66732 3.95949L4.04792 4.54596ZM5.16815 3.10888C5.4226 2.92051 5.7432 2.77389 6.26234 2.62852C6.79237 2.4801 7.47332 2.34723 8.43968 2.1595L8.15362 0.687027C7.21097 0.870154 6.46016 1.01543 5.85788 1.18408C5.24471 1.35577 4.73244 1.56513 4.27565 1.9033L5.16815 3.10888ZM8.43968 2.1595C9.4466 1.96388 10.1502 1.828 10.6994 1.77426C11.2405 1.72133 11.5436 1.75912 11.7695 1.84896L12.3239 0.455203C11.7774 0.237761 11.198 0.218324 10.5534 0.281391C9.91699 0.343654 9.13175 0.497004 8.15362 0.687027L8.43968 2.1595ZM11.7695 1.84897C12.2434 2.03748 12.6538 2.39817 12.9235 2.88298L14.2343 2.15369C13.8042 1.38072 13.1334 0.777184 12.3239 0.455191L11.7695 1.84897ZM12.9235 2.88291C13.0585 3.12574 13.1509 3.46135 13.1999 4.05127C13.2494 4.64653 13.25 5.41831 13.25 6.50906H14.75C14.75 5.44402 14.7506 4.59897 14.6948 3.92707C14.6385 3.24984 14.5204 2.66797 14.2343 2.15376L12.9235 2.88291ZM13.25 6.50906V15.4909H14.75V6.50906H13.25ZM13.25 15.4909C13.25 16.5817 13.2494 17.3534 13.1999 17.9487C13.1509 18.5386 13.0585 18.8743 12.9235 19.1171L14.2343 19.8463C14.5204 19.332 14.6385 18.7502 14.6948 18.0729C14.7506 17.401 14.75 16.556 14.75 15.4909H13.25ZM12.9235 19.1171C12.6538 19.6019 12.2434 19.9625 11.7695 20.151L12.3239 21.5448C13.1334 21.2229 13.8042 20.6193 14.2343 19.8463L12.9235 19.1171ZM11.7694 20.151C11.5436 20.2409 11.2405 20.2787 10.6994 20.2257C10.1502 20.172 9.44661 20.0361 8.4397 19.8405L8.1536 21.3129C9.13174 21.503 9.91698 21.6563 10.5534 21.7186C11.198 21.7817 11.7774 21.7622 12.324 21.5448L11.7694 20.151ZM8.43965 19.8405C7.4733 19.6528 6.79236 19.5199 6.26234 19.3715C5.7432 19.2261 5.42262 19.0795 5.16819 18.8911L4.27561 20.0967C4.73242 20.4349 5.24471 20.6443 5.85789 20.8159C6.46018 20.9846 7.21099 21.1298 8.15365 21.3129L8.43965 19.8405ZM5.16814 18.8911C4.68527 18.5336 4.29619 18.0385 4.04792 17.4541L2.66732 18.0405C3.01649 18.8625 3.57033 19.5746 4.27566 20.0967L5.16814 18.8911ZM4.04792 17.4541C3.91434 17.1396 3.83451 16.7616 3.79278 16.1796C3.75045 15.5891 3.75 14.8429 3.75 13.7957H2.25C2.25 14.8216 2.24955 15.6303 2.29662 16.2868C2.3443 16.9519 2.44328 17.5131 2.66732 18.0405L4.04792 17.4541ZM3.75 13.7957V8.20433H2.25V13.7957H3.75ZM13.9224 19.5442C14.5653 19.611 15.5316 19.779 16.4013 19.7454C17.3084 19.7104 18.3164 19.4582 19.0277 18.5513L17.8473 17.6257C17.521 18.0419 17.0339 18.2198 16.3434 18.2465C15.6157 18.2746 14.882 18.1359 14.0776 18.0522L13.9224 19.5442ZM19.0277 18.5513C19.4325 18.0351 19.5979 17.4225 19.6751 16.7238C19.7511 16.037 19.75 15.1687 19.75 14.0934H18.25C18.25 15.2033 18.2489 15.9739 18.1842 16.559C18.1209 17.1322 18.005 17.4246 17.8473 17.6257L19.0277 18.5513ZM19.75 14.0934V7.90664H18.25V14.0934H19.75ZM19.75 7.90664C19.75 6.83132 19.7511 5.96296 19.6751 5.27616C19.5979 4.57747 19.4325 3.9649 19.0277 3.44869L17.8473 4.37436C18.005 4.57539 18.1209 4.86774 18.1842 5.44099C18.2489 6.02612 18.25 6.79671 18.25 7.90664H19.75ZM19.0277 3.4487C18.3164 2.54178 17.3084 2.28965 16.4013 2.25461C15.5316 2.22101 14.5653 2.38895 13.9224 2.45579L14.0776 3.94775C14.882 3.86411 15.6157 3.72538 16.3434 3.75349C17.0339 3.78017 17.521 3.95815 17.8473 4.37434L19.0277 3.4487ZM11.75 12V10H10.25V12H11.75ZM18 19.4766H21V17.9766H18V19.4766ZM1 19.75H4V18.25H1V19.75Z" fill="white"/>
</svg>
