<svg width="16" height="18" viewBox="0 0 16 18" fill="none" xmlns="http://www.w3.org/2000/svg">
<path d="M4.17159 2.49611C3.82641 2.49611 3.54659 2.77594 3.54659 3.12111C3.54659 3.46629 3.82641 3.74611 4.17159 3.74611V2.49611ZM11.88 5.62111C11.88 5.96629 12.1598 6.24611 12.505 6.24611C12.8501 6.24611 13.13 5.96629 13.13 5.62111H11.88ZM9.84715 14.2006C9.98312 14.5179 10.3505 14.6649 10.6678 14.5289C10.9851 14.3929 11.1321 14.0255 10.9961 13.7083L9.84715 14.2006ZM9.70737 12.2878L10.2818 12.0416L10.2818 12.0416L9.70737 12.2878ZM8.41529 9.27311L7.84072 9.51907L7.84083 9.51933L8.41529 9.27311ZM7.42796 9.27311L8.00242 9.51933L8.00252 9.51907L7.42796 9.27311ZM6.13587 12.2878L5.56141 12.0416L5.56141 12.0416L6.13587 12.2878ZM4.84712 13.7082C4.71115 14.0255 4.85812 14.3929 5.17539 14.5289C5.49266 14.6649 5.86008 14.5179 5.99606 14.2006L4.84712 13.7082ZM13.3309 1.29169C13.6761 1.29169 13.9559 1.01186 13.9559 0.666686C13.9559 0.321508 13.6761 0.0416864 13.3309 0.041687L13.3309 1.29169ZM3.1731 0.666704L3.1731 1.2917L3.1731 1.2917L3.1731 0.666704ZM2.00062 0.973204L2.37046 1.47704L2.37047 1.47703L2.00062 0.973204ZM1.77307 5.05885L2.20348 4.60567L2.20348 4.60567L1.77307 5.05885ZM0.866366 14.0594L0.241368 14.0611L0.241409 14.0769L0.242255 14.0928L0.866366 14.0594ZM1.46346 3.30372C1.46256 2.95854 1.18201 2.67944 0.836836 2.68034C0.491659 2.68123 0.212564 2.96178 0.21346 3.30696L1.46346 3.30372ZM4.17159 3.74611H11.255V2.49611H4.17159V3.74611ZM11.255 3.74611C11.6001 3.74611 11.88 4.02594 11.88 4.37111H13.13C13.13 3.33557 12.2905 2.49611 11.255 2.49611V3.74611ZM11.88 4.37111V5.62111H13.13V4.37111H11.88ZM10.9961 13.7083L10.2818 12.0416L9.1329 12.534L9.84715 14.2006L10.9961 13.7083ZM10.2818 12.0416L8.98975 9.0269L7.84083 9.51933L9.13291 12.534L10.2818 12.0416ZM8.98986 9.02715C8.80494 8.59518 8.37782 8.32945 7.92162 8.32945V9.57945C7.89776 9.57945 7.86047 9.56521 7.84072 9.51907L8.98986 9.02715ZM7.92162 8.32945C7.46543 8.32945 7.03831 8.59518 6.85339 9.02715L8.00252 9.51907C7.98277 9.56522 7.94549 9.57945 7.92162 9.57945V8.32945ZM6.8535 9.0269L5.56141 12.0416L6.71033 12.534L8.00242 9.51933L6.8535 9.0269ZM9.70737 11.6628H6.13587V12.9128H9.70737V11.6628ZM5.99606 14.2006L6.71034 12.534L5.56141 12.0416L4.84712 13.7082L5.99606 14.2006ZM13.3309 0.041687L3.1731 0.0417037L3.1731 1.2917L13.3309 1.29169L13.3309 0.041687ZM3.1731 0.0417037C2.71607 0.0417037 2.12781 0.104526 1.63078 0.469376L2.37047 1.47703C2.54295 1.35041 2.80186 1.2917 3.1731 1.2917V0.0417037ZM1.63079 0.469372C0.997606 0.934157 0.418568 1.69395 0.254195 2.60945C0.0828765 3.56364 0.379008 4.59683 1.34267 5.51204L2.20348 4.60567C1.51527 3.95206 1.39446 3.33199 1.48452 2.83035C1.58154 2.29001 1.94221 1.79139 2.37046 1.47704L1.63079 0.469372ZM1.34267 5.51204C1.96569 6.10375 2.79633 6.28404 3.52247 6.28404V5.03404C2.97403 5.03404 2.50808 4.89496 2.20348 4.60567L1.34267 5.51204ZM3.52247 6.28404H13.153V5.03404H3.52247V6.28404ZM13.153 6.28404C13.4747 6.28404 13.7532 6.31588 13.9566 6.464C14.1202 6.5831 14.375 6.88528 14.375 7.77277H15.625C15.625 6.64117 15.287 5.88648 14.6924 5.45349C14.1376 5.04952 13.4924 5.03404 13.153 5.03404V6.28404ZM14.375 7.77277V13.9844H15.625V7.77277H14.375ZM14.375 13.9844C14.375 15.4919 13.1603 16.7084 11.6689 16.7084V17.9584C13.8569 17.9584 15.625 16.176 15.625 13.9844H14.375ZM11.6689 16.7084H4.14376V17.9584H11.6689V16.7084ZM4.14376 16.7084C3.37821 16.7084 2.74716 16.4407 2.29595 15.9935C1.84314 15.5447 1.53603 14.8794 1.49048 14.0261L0.242255 14.0928C0.302201 15.2156 0.715616 16.1872 1.41604 16.8813C2.11807 17.5771 3.07297 17.9584 4.14376 17.9584V16.7084ZM1.49136 14.0578L1.46346 3.30372L0.21346 3.30696L0.241368 14.0611L1.49136 14.0578Z" fill="#F2F2F2" fill-opacity="0.7"/>
</svg>
