<svg width="18" height="18" viewBox="0 0 18 18" fill="none" xmlns="http://www.w3.org/2000/svg">
<path d="M13.4132 4.83331H13.4207M1.33325 16.9166L5.49992 12.75M6.33325 16.9166L7.99992 15.25M1.33325 11.9166L2.99992 10.25M9.08433 4.40789L10.3223 3.16992C11.7163 1.77598 13.5412 1.19779 15.4725 1.10331C16.2238 1.06656 16.5993 1.04818 16.9005 1.34938C17.2018 1.65057 17.1833 2.02617 17.1466 2.77739C17.0521 4.70873 16.4739 6.53367 15.08 7.92757L13.842 9.16557C12.8225 10.1851 12.5327 10.475 12.7467 11.5808C12.9579 12.4256 13.1623 13.2436 12.5481 13.8578C11.803 14.6029 11.1233 14.6029 10.3783 13.8578L4.39207 7.87165C3.64699 7.12655 3.64697 6.4469 4.39207 5.70181C5.00631 5.08756 5.82433 5.29202 6.66906 5.50322C7.77492 5.71726 8.06483 5.42739 9.08433 4.40789Z" stroke="#F2F2F2" stroke-opacity="0.7" stroke-width="1.25" stroke-linecap="round" stroke-linejoin="round"/>
</svg>
