<svg width="57" height="64" viewBox="0 0 57 64" fill="none" xmlns="http://www.w3.org/2000/svg">
<path d="M0 8C0 12.4183 3.58172 16 8 16C12.4183 16 16 12.4183 16 8C16 3.58172 12.4183 0 8 0C3.58172 0 0 3.58172 0 8ZM41 52.5C41 56.9183 44.5817 60.5 49 60.5C53.4183 60.5 57 56.9183 57 52.5C57 48.0817 53.4183 44.5 49 44.5C44.5817 44.5 41 48.0817 41 52.5ZM6.5 8C6.49997 27.4996 12.8101 45.7955 21.3397 55.8446C25.5946 60.8575 30.6117 64.0503 35.8604 63.9262C41.1817 63.8005 46.1436 60.2909 50.2918 53.2624L47.7082 51.7376C43.8342 58.3016 39.66 60.8356 35.7896 60.9271C31.8466 61.0202 27.6165 58.6037 23.6269 53.9033C15.6676 44.5259 9.49997 26.9793 9.5 8L6.5 8Z" fill="url(#paint0_linear_212_8113)"/>
<defs>
<linearGradient id="paint0_linear_212_8113" x1="-10.0556" y1="50.9852" x2="27.2362" y2="64.3513" gradientUnits="userSpaceOnUse">
<stop stop-color="#0FB478"/>
<stop offset="0.76" stop-color="#0E95AA"/>
<stop offset="1" stop-color="#0C70E6"/>
</linearGradient>
</defs>
</svg>
