<svg width="64" height="69" viewBox="0 0 64 69" fill="none" xmlns="http://www.w3.org/2000/svg">
<path d="M0 59C0 63.4183 3.58172 67 8 67C12.4183 67 16 63.4183 16 59C16 54.5817 12.4183 51 8 51C3.58172 51 0 54.5817 0 59ZM48 8C48 12.4183 51.5817 16 56 16C60.4183 16 64 12.4183 64 8C64 3.58172 60.4183 0 56 0C51.5817 0 48 3.58172 48 8ZM6.51595 59.2182C7.01139 62.5883 8.22317 65.1387 10.1875 66.7156C12.1738 68.3102 14.6744 68.7064 17.299 68.2891C22.443 67.4711 28.6063 63.4643 34.4408 57.734C46.1575 46.2263 57.5 26.812 57.5 8H54.5C54.5 25.7493 43.6954 44.4394 32.3386 55.5936C26.6363 61.1942 21.0313 64.6578 16.8278 65.3263C14.7787 65.6522 13.2109 65.2957 12.0655 64.3762C10.8981 63.439 9.91508 61.7139 9.48405 58.7818L6.51595 59.2182Z" fill="url(#paint0_linear_212_8114)"/>
<defs>
<linearGradient id="paint0_linear_212_8114" x1="8.97042" y1="80.0755" x2="68.3571" y2="32.3239" gradientUnits="userSpaceOnUse">
<stop stop-color="#0FB478"/>
<stop offset="0.803016" stop-color="#0E95AA"/>
<stop offset="1" stop-color="#0C70E6"/>
</linearGradient>
</defs>
</svg>
